<svg aria-hidden="true" style="position: absolute; width: 0; height: 0; overflow: hidden;" version="1.1" xmlns="http://www.w3.org/2000/svg" xmlns:xlink="http://www.w3.org/1999/xlink">
<defs>
<symbol id="icon-antenna" viewBox="0 0 32 32">
<path fill="#2e2f42" style="fill: var(--color1, #2e2f42)" d="M30.773 22.098l-8.443-8.505 0.937-4.615c0.242 0.094 0.499 0.144 0.758 0.146h0.006c1.192 0.014 2.17-0.941 2.184-2.133s-0.941-2.17-2.133-2.184c-1.192-0.014-2.17 0.941-2.184 2.133-0.003 0.255 0.039 0.509 0.125 0.749l-4.96 0.605-8.091-8.133c-0.099-0.101-0.235-0.159-0.377-0.16-0.14 0.001-0.274 0.056-0.373 0.155l-1.513 1.504c-0.208 0.208-0.208 0.546 0 0.754l0.814 0.826c-3.153 5.798-2.129 12.978 2.519 17.663 0.043 0.041 0.092 0.074 0.146 0.098-0.034 0.18-0.051 0.364-0.052 0.547v6.187h-6.4c-1.472 0.002-2.665 1.195-2.667 2.667v1.067c0 0.295 0.239 0.533 0.533 0.533h24.533c0.295 0 0.533-0.239 0.533-0.533v-1.067c-0.002-1.472-1.195-2.665-2.667-2.667h-6.4v-2.742c1.003 0.21 2.024 0.317 3.049 0.32 2.458-0.003 4.877-0.615 7.040-1.783l0.818 0.823c0.099 0.101 0.235 0.159 0.377 0.16 0.14-0.001 0.274-0.056 0.373-0.155l1.513-1.504c0.208-0.208 0.208-0.546 0-0.754zM23.28 6.233c0.418-0.415 1.093-0.414 1.509 0.004s0.414 1.093-0.004 1.508c-0.2 0.199-0.47 0.31-0.752 0.31h-0.003c-0.589-0.003-1.064-0.483-1.061-1.072 0.002-0.282 0.115-0.552 0.314-0.751h-0.002zM22.024 9.738l-0.598 2.946-1.175-1.182 1.774-1.763zM21.419 8.836l-1.92 1.909-1.485-1.493 3.405-0.415zM24.004 28.8c0.884 0 1.6 0.716 1.6 1.6v0.533h-23.467v-0.533c0-0.884 0.716-1.6 1.6-1.6h20.267zM16.537 26.667v1.067h-5.333v-1.067h5.333zM11.204 25.6v-4.053c0-1.294 1.196-2.347 2.667-2.347s2.667 1.053 2.667 2.347v4.053h-5.333zM17.604 23.904v-2.357c0-1.882-1.675-3.413-3.733-3.413-1.331-0.020-2.576 0.657-3.281 1.786-4.058-4.274-4.971-10.645-2.279-15.887l18.602 18.708c-2.872 1.461-6.165 1.873-9.309 1.163zM28.893 23.22l-21.057-21.181 0.755-0.752 7.935 7.98c0.004 0 0.006 0.007 0.010 0.010l13.115 13.191-0.757 0.752z"></path>
<path fill="#4d5ae5" style="fill: var(--color2, #4d5ae5)" d="M13.876 20.267h-0.005c-0.884-0.001-1.601 0.714-1.602 1.598s0.714 1.601 1.598 1.602h0.005c0.884 0.001 1.601-0.714 1.602-1.598s-0.714-1.601-1.598-1.602zM14.249 22.245c-0.1 0.1-0.236 0.156-0.378 0.155-0.295-0.002-0.532-0.242-0.531-0.536 0.001-0.141 0.057-0.276 0.157-0.375s0.233-0.154 0.373-0.155c0.295 0.002 0.532 0.242 0.531 0.536-0.001 0.141-0.057 0.276-0.157 0.375h0.005z"></path>
</symbol>
<symbol id="icon-astronaut" viewBox="0 0 32 32">
<path fill="#4d5ae5" style="fill: var(--color2, #4d5ae5)" d="M31.974 4.524c-0.063-0.193-0.229-0.333-0.43-0.363l-1.91-0.278-0.855-1.731c-0.179-0.365-0.777-0.365-0.956 0l-0.855 1.731-1.91 0.278c-0.201 0.029-0.367 0.17-0.431 0.363-0.062 0.193-0.011 0.405 0.135 0.547l1.383 1.348-0.326 1.903c-0.034 0.2 0.048 0.402 0.212 0.522 0.166 0.121 0.382 0.135 0.562 0.040l1.709-0.899 1.709 0.899c0.078 0.041 0.164 0.061 0.249 0.061 0.11 0 0.221-0.034 0.314-0.102 0.164-0.119 0.246-0.322 0.212-0.522l-0.326-1.903 1.383-1.348c0.145-0.142 0.197-0.354 0.135-0.547zM29.511 5.851c-0.125 0.122-0.183 0.299-0.153 0.472l0.191 1.114-1-0.526c-0.078-0.041-0.163-0.061-0.249-0.061s-0.17 0.020-0.249 0.061l-1.001 0.526 0.191-1.114c0.030-0.173-0.028-0.349-0.153-0.472l-0.81-0.789 1.119-0.163c0.174-0.025 0.324-0.134 0.402-0.292l0.5-1.013 0.5 1.013c0.078 0.157 0.228 0.267 0.402 0.292l1.119 0.163-0.809 0.789z"></path>
<path fill="#4d5ae5" style="fill: var(--color2, #4d5ae5)" d="M26.133 20.522h-1.067v1.067h1.067v-1.067z"></path>
<path fill="#4d5ae5" style="fill: var(--color2, #4d5ae5)" d="M26.133 22.656h-1.067v1.067h1.067v-1.067z"></path>
<path fill="#4d5ae5" style="fill: var(--color2, #4d5ae5)" d="M27.2 21.589h-1.067v1.067h1.067v-1.067z"></path>
<path fill="#4d5ae5" style="fill: var(--color2, #4d5ae5)" d="M25.067 21.589h-1.067v1.067h1.067v-1.067z"></path>
<path fill="#4d5ae5" style="fill: var(--color2, #4d5ae5)" d="M22.4 26.389h-1.067v1.067h1.067v-1.067z"></path>
<path fill="#4d5ae5" style="fill: var(--color2, #4d5ae5)" d="M22.4 28.522h-1.067v1.067h1.067v-1.067z"></path>
<path fill="#4d5ae5" style="fill: var(--color2, #4d5ae5)" d="M23.467 27.456h-1.067v1.067h1.067v-1.067z"></path>
<path fill="#4d5ae5" style="fill: var(--color2, #4d5ae5)" d="M21.333 27.456h-1.067v1.067h1.067v-1.067z"></path>
<path fill="#4d5ae5" style="fill: var(--color2, #4d5ae5)" d="M16 24.256h-1.067v1.067h1.067v-1.067z"></path>
<path fill="#4d5ae5" style="fill: var(--color2, #4d5ae5)" d="M16 26.389h-1.067v1.067h1.067v-1.067z"></path>
<path fill="#4d5ae5" style="fill: var(--color2, #4d5ae5)" d="M17.067 25.322h-1.067v1.067h1.067v-1.067z"></path>
<path fill="#4d5ae5" style="fill: var(--color2, #4d5ae5)" d="M14.933 25.322h-1.067v1.067h1.067v-1.067z"></path>
<path fill="#4d5ae5" style="fill: var(--color2, #4d5ae5)" d="M5.867 6.122h-1.067v1.067h1.067v-1.067z"></path>
<path fill="#4d5ae5" style="fill: var(--color2, #4d5ae5)" d="M5.867 8.255h-1.067v1.067h1.067v-1.067z"></path>
<path fill="#4d5ae5" style="fill: var(--color2, #4d5ae5)" d="M6.933 7.189h-1.067v1.067h1.067v-1.067z"></path>
<path fill="#4d5ae5" style="fill: var(--color2, #4d5ae5)" d="M4.8 7.189h-1.067v1.067h1.067v-1.067z"></path>
<path fill="#2e2f42" style="fill: var(--color1, #2e2f42)" d="M24.715 14.159c-0.287-0.388-0.709-0.637-1.188-0.705-0.481-0.068-0.956 0.058-1.34 0.352l-1.252 0.96-1.898 1.417-1.358-0.541c2.421-1.086 4.114-3.508 4.114-6.32 0-3.823-3.123-6.933-6.961-6.933s-6.961 3.11-6.961 6.933c0 1.386 0.414 2.674 1.12 3.758l-2.764-0.024c-0.002 0-0.003 0-0.005 0-0.009 0-0.015 0.004-0.023 0.005-0.053 0.002-0.105 0.013-0.155 0.031-0.013 0.005-0.026 0.008-0.038 0.013-0.006 0.003-0.013 0.003-0.019 0.006l-3.233 1.596c-0.001 0-0.001 0-0.001 0.001l-1.893 0.911c-0.021 0.009-0.042 0.021-0.063 0.035-0.755 0.502-1.012 1.489-0.598 2.295 0.22 0.429 0.595 0.745 1.056 0.889 0.178 0.055 0.359 0.083 0.539 0.083 0.29 0 0.577-0.071 0.839-0.211l1.388-0.738 2.264-1.169 1.357-0.008-5.442 5.416c-0.001 0.001-0.001 0.001-0.002 0.001l-1.339 1.333c-0.316 0.315-0.49 0.732-0.49 1.178s0.174 0.863 0.49 1.179c0.325 0.323 0.752 0.485 1.179 0.485s0.854-0.162 1.18-0.485l1.314-1.309 1.741-1.3 0.901 0.897-1.762 1.754c-0 0.001-0.001 0.001-0.002 0.001l-1.339 1.333c-0.316 0.315-0.49 0.732-0.49 1.178s0.174 0.863 0.49 1.179c0.325 0.323 0.753 0.485 1.18 0.485s0.855-0.162 1.18-0.485l3.482-3.467c0.001-0.001 0.001-0.001 0.001-0.002l1.010-1-0.004-0.004c0.006-0.006 0.015-0.009 0.022-0.015l5.166-5.658 3.471 0.494c0.025 0.004 0.050 0.005 0.075 0.005 0.065 0 0.127-0.015 0.187-0.038 0.018-0.006 0.033-0.015 0.050-0.023 0.019-0.010 0.039-0.015 0.058-0.027l3.213-2.133c0.012-0.008 0.018-0.021 0.029-0.029 0.013-0.010 0.029-0.014 0.041-0.026l1.271-1.191c0.662-0.62 0.753-1.635 0.212-2.362zM2.13 17.77c-0.173 0.093-0.37 0.111-0.558 0.052-0.187-0.058-0.338-0.186-0.427-0.358-0.161-0.314-0.068-0.695 0.214-0.902l1.314-0.632 0.449 1.313-0.992 0.527zM5.628 15.942l-1.548 0.8-0.439-1.283 2.027-1.001-0.040 1.484zM20.727 9.322c0 0.918-0.219 1.785-0.599 2.559l-4.181-1.899c-0.044-0.573-0.341-1.075-0.788-1.388l1.464-4.86c2.378 0.756 4.105 2.974 4.105 5.588zM8.938 9.322c0-3.235 2.644-5.867 5.894-5.867 0.253 0 0.5 0.021 0.745 0.052l-1.432 4.754c-0.019-0.001-0.037-0.006-0.057-0.006-1.033 0-1.873 0.837-1.873 1.867s0.84 1.867 1.873 1.867c0.694 0 1.294-0.383 1.618-0.945l3.862 1.755c-1.075 1.446-2.795 2.39-4.737 2.39-3.25 0-5.894-2.632-5.894-5.867zM14.894 10.122c0 0.441-0.362 0.8-0.806 0.8s-0.806-0.359-0.806-0.8c0-0.441 0.362-0.8 0.806-0.8s0.806 0.359 0.806 0.8zM2.465 25.146c-0.236 0.234-0.619 0.234-0.854 0.001-0.114-0.114-0.176-0.263-0.176-0.423s0.062-0.309 0.176-0.421l0.962-0.958 0.851 0.848-0.959 0.955zM5.679 28.88c-0.236 0.234-0.619 0.235-0.855 0.001-0.114-0.114-0.176-0.263-0.176-0.423s0.062-0.309 0.176-0.421l0.963-0.959 0.852 0.848-0.96 0.955zM9.16 25.411c-0.001 0-0.001 0-0.002 0.001l-1.765 1.76-0.852-0.848 1.763-1.755c0 0 0 0 0-0s0.001-0.001 0.002-0.001c0.040-0.040 0.065-0.088 0.090-0.135 0.007-0.014 0.020-0.026 0.026-0.040 0.017-0.041 0.019-0.085 0.026-0.129 0.003-0.025 0.014-0.047 0.014-0.073 0-0.036-0.013-0.070-0.020-0.106-0.006-0.032-0.006-0.065-0.019-0.095-0.020-0.050-0.055-0.094-0.091-0.138-0.010-0.012-0.014-0.027-0.025-0.038 0 0 0 0-0.001 0s-0.001-0.002-0.001-0.002l-1.607-1.6c-0.017-0.017-0.039-0.024-0.058-0.038-0.028-0.022-0.055-0.042-0.087-0.058-0.030-0.015-0.061-0.024-0.093-0.033-0.034-0.010-0.067-0.017-0.103-0.020-0.033-0.002-0.063 0.001-0.095 0.005-0.036 0.004-0.069 0.009-0.104 0.020-0.034 0.011-0.063 0.027-0.094 0.045-0.020 0.011-0.042 0.015-0.061 0.029l-1.773 1.324-0.901-0.897 2.399-2.386 4.361 4.289-0.928 0.919zM15.979 18.394c-0.015-0.002-0.030 0.004-0.045 0.003-0.039-0.002-0.076 0.001-0.115 0.007-0.030 0.005-0.059 0.011-0.088 0.021-0.034 0.012-0.065 0.028-0.097 0.047-0.030 0.018-0.057 0.037-0.083 0.061-0.013 0.011-0.028 0.017-0.040 0.029l-4.698 5.146-4.328-4.257 2.833-2.818c0.209-0.208 0.21-0.546 0.002-0.755-0.105-0.105-0.243-0.157-0.381-0.156v-0.001l-2.219 0.013 0.028-1.607 3.104 0.027c1.265 1.294 3.029 2.101 4.981 2.101 0.437 0 0.864-0.045 1.279-0.123 0.040 0.032 0.079 0.065 0.13 0.085l2.41 0.96 0.152 0.758 0.178 0.885-3.003-0.427zM20.020 18.572l-0.313-1.558 1.446-1.080 0.947 1.257-2.080 1.381zM23.774 15.741l-0.838 0.785-0.931-1.236 0.831-0.637c0.155-0.119 0.351-0.168 0.543-0.143 0.193 0.027 0.364 0.128 0.48 0.284 0.217 0.292 0.18 0.699-0.085 0.947z"></path>
<path fill="#2e2f42" style="fill: var(--color1, #2e2f42)" d="M13.602 18.544l-2.143-2.133c-0.207-0.207-0.545-0.207-0.753 0l-2.142 2.133c-0.1 0.101-0.157 0.236-0.157 0.378s0.056 0.278 0.157 0.378l2.142 2.133c0.104 0.103 0.241 0.155 0.377 0.155s0.273-0.052 0.376-0.155l2.143-2.133c0.1-0.1 0.157-0.236 0.157-0.378s-0.057-0.278-0.157-0.378zM11.083 20.303l-1.387-1.381 1.387-1.381 1.387 1.381-1.387 1.381z"></path>
<path fill="#2e2f42" style="fill: var(--color1, #2e2f42)" d="M17.164 5.071l-0.258 1.036c0.071 0.018 1.738 0.452 1.738 2.149h1.067c-0-2.017-1.666-2.965-2.547-3.185z"></path>
<path fill="#2e2f42" style="fill: var(--color1, #2e2f42)" d="M19.711 9.322h-1.067v1.067h1.067v-1.067z"></path>
</symbol>
<symbol id="icon-clock" viewBox="0 0 32 32">
<path fill="#2e2f42" style="fill: var(--color1, #2e2f42)" d="M31.297 15.301c-0.002-8.452-6.855-15.303-15.308-15.301s-15.303 6.855-15.301 15.308c0.001 6.658 4.307 12.551 10.649 14.576 0.061 0.019 0.124 0.029 0.187 0.029 0.121-0 0.239-0.032 0.342-0.094 0.135-0.080 0.236-0.207 0.283-0.356l3.865-12.25c1.057-0.005 1.909-0.866 1.903-1.923s-0.866-1.909-1.923-1.903c-0.284 0.001-0.565 0.067-0.82 0.191l-5.106-5.107c-0.253-0.245-0.657-0.238-0.902 0.016-0.239 0.247-0.239 0.639 0 0.886l5.103 5.109c-0.392 0.799-0.168 1.764 0.536 2.309l-3.683 11.673c-7.278-2.681-11.004-10.754-8.323-18.032s10.754-11.004 18.032-8.323c7.278 2.681 11.004 10.754 8.323 18.032-1.31 3.556-4.001 6.431-7.462 7.973l-0.398-1.874c-0.073-0.345-0.411-0.565-0.756-0.492-0.109 0.023-0.209 0.074-0.293 0.148l-3.837 3.426c-0.263 0.234-0.287 0.637-0.052 0.9 0.076 0.085 0.174 0.149 0.283 0.184l4.899 1.564c0.335 0.108 0.694-0.077 0.802-0.412 0.034-0.106 0.040-0.219 0.017-0.328l-0.391-1.839c5.664-2.388 9.342-7.942 9.329-14.089zM15.992 14.664c0.352 0 0.638 0.286 0.638 0.638s-0.286 0.638-0.638 0.638c-0.352 0-0.638-0.285-0.638-0.638s0.285-0.638 0.638-0.638zM18.093 29.528l2.184-1.948 0.603 2.84-2.787-0.892z"></path>
<path fill="#4d5ae5" style="fill: var(--color2, #4d5ae5)" d="M15.354 3.185v1.275c0 0.352 0.285 0.638 0.638 0.638s0.638-0.285 0.638-0.638v-1.275c0-0.352-0.286-0.638-0.638-0.638s-0.638 0.286-0.638 0.638z"></path>
<path fill="#4d5ae5" style="fill: var(--color2, #4d5ae5)" d="M3.876 14.664c-0.352 0-0.638 0.286-0.638 0.638s0.285 0.638 0.638 0.638h1.275c0.352 0 0.638-0.285 0.638-0.638s-0.285-0.638-0.638-0.638h-1.275z"></path>
<path fill="#4d5ae5" style="fill: var(--color2, #4d5ae5)" d="M28.108 15.939c0.352 0 0.638-0.285 0.638-0.638s-0.285-0.638-0.638-0.638h-1.275c-0.352 0-0.638 0.286-0.638 0.638s0.286 0.638 0.638 0.638h1.275z"></path>
</symbol>
<symbol id="icon-diagram" viewBox="0 0 32 32">
<path fill="#4d5ae5" style="fill: var(--color2, #4d5ae5)" d="M14.925 14.965h1.066v4.798h-1.066v-4.797z"></path>
<path fill="#4d5ae5" style="fill: var(--color2, #4d5ae5)" d="M19.19 17.097h1.066v2.665h-1.066v-2.665z"></path>
<path fill="#4d5ae5" style="fill: var(--color2, #4d5ae5)" d="M10.661 18.696h1.066v1.066h-1.066v-1.066z"></path>
<path fill="#4d5ae5" style="fill: var(--color2, #4d5ae5)" d="M7.463 18.163h1.066v1.599h-1.066v-1.599z"></path>
<path fill="#2e2f42" style="fill: var(--color1, #2e2f42)" d="M1.599 28.291h25.587c0.883 0 1.599-0.716 1.599-1.599v-2.132c0-0.883-0.716-1.599-1.599-1.599h-0.533v-13.293l3.028-2.868c0.703 0.346 1.553 0.136 2.013-0.499s0.396-1.508-0.152-2.068-1.42-0.644-2.065-0.198c-0.644 0.446-0.873 1.292-0.542 2.002l-2.281 2.163v-1.23c0-0.883-0.716-1.599-1.599-1.599h-21.322c-0.883 0-1.599 0.716-1.599 1.599v15.992h-0.533c-0.883 0-1.599 0.716-1.599 1.599v2.132c0 0.883 0.716 1.599 1.599 1.599zM30.384 4.837c0.294 0 0.533 0.239 0.533 0.533s-0.239 0.533-0.533 0.533c-0.294 0-0.533-0.239-0.533-0.533s0.239-0.533 0.533-0.533zM3.198 6.969c0-0.294 0.239-0.533 0.533-0.533h21.322c0.294 0 0.533 0.239 0.533 0.533v2.239l-1.066 1.013v-2.186c0-0.294-0.239-0.533-0.533-0.533h-19.19c-0.294 0-0.533 0.239-0.533 0.533v13.326c0 0.294 0.239 0.533 0.533 0.533h19.19c0.294 0 0.533-0.239 0.533-0.533v-9.674l1.066-1.010v12.284h-22.388v-15.992zM7.996 13.899c-0.721-0.002-1.354 0.478-1.546 1.174s0.105 1.433 0.725 1.801c0.62 0.368 1.41 0.276 1.928-0.226l1.853 0.93c0.215 0.108 0.476 0.057 0.636-0.123l3.939-4.431 3.872 2.901c0.208 0.156 0.498 0.139 0.686-0.039l3.365-3.188v8.131h-18.124v-12.26h18.124v2.66l-3.771 3.572-3.904-2.927c-0.222-0.166-0.534-0.135-0.718 0.072l-3.993 4.493-1.493-0.746c0.011-0.064 0.018-0.129 0.020-0.193 0-0.883-0.716-1.599-1.599-1.599zM8.529 15.498c0 0.294-0.239 0.533-0.533 0.533s-0.533-0.239-0.533-0.533c0-0.294 0.239-0.533 0.533-0.533s0.533 0.239 0.533 0.533zM11.727 24.027h5.331v0.533c0 0.294-0.239 0.533-0.533 0.533h-4.264c-0.294 0-0.533-0.239-0.533-0.533v-0.533zM1.066 24.56c0-0.294 0.239-0.533 0.533-0.533h9.062v0.533c0 0.883 0.716 1.599 1.599 1.599h4.264c0.883 0 1.599-0.716 1.599-1.599v-0.533h9.062c0.294 0 0.533 0.239 0.533 0.533v2.132c0 0.294-0.239 0.533-0.533 0.533h-25.587c-0.294 0-0.533-0.239-0.533-0.533v-2.132z"></path>
</symbol>
<symbol id="icon-facebook" viewBox="0 0 32 32">
<path fill="#f4f4fd" style="fill: var(--color3, #f4f4fd)" d="M21.329 5.313h2.921v-5.088c-0.504-0.069-2.237-0.225-4.256-0.225-4.212 0-7.097 2.649-7.097 7.519v4.481h-4.648v5.688h4.648v14.312h5.699v-14.311h4.46l0.708-5.688h-5.169v-3.919c0.001-1.644 0.444-2.769 2.735-2.769z"></path>
</symbol>
<symbol id="icon-instagram" viewBox="0 0 32 32">
<path fill="#f4f4fd" style="fill: var(--color3, #f4f4fd)" d="M31.969 9.408c-0.075-1.7-0.35-2.869-0.744-3.882-0.406-1.075-1.031-2.038-1.85-2.838-0.8-0.813-1.769-1.444-2.832-1.844-1.019-0.394-2.182-0.669-3.882-0.744-1.713-0.081-2.257-0.1-6.601-0.1s-4.888 0.019-6.595 0.094c-1.7 0.075-2.869 0.35-3.882 0.744-1.075 0.406-2.038 1.031-2.838 1.85-0.813 0.8-1.444 1.769-1.844 2.832-0.394 1.019-0.669 2.182-0.744 3.882-0.081 1.713-0.1 2.257-0.1 6.601s0.019 4.888 0.094 6.595c0.075 1.7 0.35 2.869 0.744 3.882 0.406 1.075 1.038 2.038 1.85 2.838 0.8 0.813 1.769 1.444 2.832 1.844 1.019 0.394 2.182 0.669 3.882 0.744 1.706 0.075 2.25 0.094 6.595 0.094s4.888-0.019 6.595-0.094c1.7-0.075 2.869-0.35 3.882-0.744 2.151-0.831 3.851-2.532 4.682-4.682 0.394-1.019 0.669-2.182 0.744-3.882 0.075-1.707 0.094-2.25 0.094-6.595s-0.006-4.888-0.081-6.595zM29.087 22.473c-0.069 1.563-0.331 2.407-0.55 2.969-0.538 1.394-1.644 2.5-3.038 3.038-0.563 0.219-1.413 0.481-2.969 0.55-1.688 0.075-2.194 0.094-6.464 0.094s-4.782-0.019-6.464-0.094c-1.563-0.069-2.407-0.331-2.969-0.55-0.694-0.256-1.325-0.663-1.838-1.194-0.531-0.519-0.938-1.144-1.194-1.838-0.219-0.563-0.481-1.413-0.55-2.969-0.075-1.688-0.094-2.194-0.094-6.464s0.019-4.782 0.094-6.464c0.069-1.563 0.331-2.407 0.55-2.969 0.256-0.694 0.663-1.325 1.2-1.838 0.519-0.531 1.144-0.938 1.838-1.194 0.563-0.219 1.413-0.481 2.969-0.55 1.688-0.075 2.194-0.094 6.464-0.094 4.276 0 4.782 0.019 6.464 0.094 1.563 0.069 2.407 0.331 2.969 0.55 0.694 0.256 1.325 0.662 1.838 1.194 0.531 0.519 0.938 1.144 1.194 1.838 0.219 0.563 0.481 1.413 0.55 2.969 0.075 1.688 0.094 2.194 0.094 6.464s-0.019 4.77-0.094 6.458z"></path>
<path fill="#f4f4fd" style="fill: var(--color3, #f4f4fd)" d="M16.059 7.783c-4.538 0-8.22 3.682-8.22 8.22s3.682 8.22 8.22 8.22c4.538 0 8.22-3.682 8.22-8.22s-3.682-8.22-8.22-8.22zM16.059 21.335c-2.944 0-5.332-2.388-5.332-5.332s2.388-5.332 5.332-5.332c2.944 0 5.332 2.388 5.332 5.332s-2.388 5.332-5.332 5.332z"></path>
<path fill="#f4f4fd" style="fill: var(--color3, #f4f4fd)" d="M26.524 7.458c0 1.060-0.859 1.919-1.919 1.919s-1.919-0.859-1.919-1.919c0-1.060 0.859-1.919 1.919-1.919s1.919 0.859 1.919 1.919z"></path>
</symbol>
<symbol id="icon-linkedin" viewBox="0 0 32 32">
<path fill="#f4f4fd" style="fill: var(--color3, #f4f4fd)" d="M31.992 32v-0.001h0.008v-11.736c0-5.741-1.236-10.164-7.948-10.164-3.227 0-5.392 1.771-6.276 3.449h-0.093v-2.913h-6.364v21.364h6.627v-10.579c0-2.785 0.528-5.479 3.977-5.479 3.399 0 3.449 3.179 3.449 5.657v10.401h6.62z"></path>
<path fill="#f4f4fd" style="fill: var(--color3, #f4f4fd)" d="M0.528 10.636h6.635v21.364h-6.635v-21.364z"></path>
<path fill="#f4f4fd" style="fill: var(--color3, #f4f4fd)" d="M3.843-0c-2.121 0-3.843 1.721-3.843 3.843s1.721 3.879 3.843 3.879c2.121 0 3.843-1.757 3.843-3.879-0.001-2.121-1.723-3.843-3.843-3.843v0z"></path>
</symbol>
<symbol id="icon-twitter" viewBox="0 0 32 32">
<path fill="#f4f4fd" style="fill: var(--color3, #f4f4fd)" d="M32 6.078c-1.19 0.522-2.458 0.868-3.78 1.036 1.36-0.812 2.398-2.088 2.886-3.626-1.268 0.756-2.668 1.29-4.16 1.588-1.204-1.282-2.92-2.076-4.792-2.076-3.632 0-6.556 2.948-6.556 6.562 0 0.52 0.044 1.020 0.152 1.496-5.454-0.266-10.28-2.88-13.522-6.862-0.566 0.982-0.898 2.106-0.898 3.316 0 2.272 1.17 4.286 2.914 5.452-1.054-0.020-2.088-0.326-2.964-0.808 0 0.020 0 0.046 0 0.072 0 3.188 2.274 5.836 5.256 6.446-0.534 0.146-1.116 0.216-1.72 0.216-0.42 0-0.844-0.024-1.242-0.112 0.85 2.598 3.262 4.508 6.13 4.57-2.232 1.746-5.066 2.798-8.134 2.798-0.538 0-1.054-0.024-1.57-0.090 2.906 1.874 6.35 2.944 10.064 2.944 12.072 0 18.672-10 18.672-18.668 0-0.29-0.010-0.57-0.024-0.848 1.302-0.924 2.396-2.078 3.288-3.406z"></path>
</symbol>

<symbol id="icon-person-black" viewBox="0 0 32 32">
<path d="M16 16c2.947 0 5.333-2.387 5.333-5.333s-2.387-5.333-5.333-5.333c-2.947 0-5.333 2.387-5.333 5.333s2.387 5.333 5.333 5.333zM16 18.667c-3.56 0-10.667 1.787-10.667 5.333v1.333c0 0.733 0.6 1.333 1.333 1.333h18.667c0.733 0 1.333-0.6 1.333-1.333v-1.333c0-3.547-7.107-5.333-10.667-5.333z"></path>
</symbol>
<symbol id="icon-email-black" viewBox="0 0 24 32">
<path d="M20 8h-16c-1.1 0-1.99 0.9-1.99 2l-0.010 12c0 1.1 0.9 2 2 2h16c1.1 0 2-0.9 2-2v-12c0-1.1-0.9-2-2-2zM19.6 12.25l-7.070 4.42c-0.32 0.2-0.74 0.2-1.060 0l-7.070-4.42c-0.25-0.16-0.4-0.43-0.4-0.72 0-0.67 0.73-1.070 1.3-0.72l6.7 4.19 6.7-4.19c0.57-0.35 1.3 0.050 1.3 0.72 0 0.29-0.15 0.56-0.4 0.72z"></path>
</symbol>
<symbol id="icon-close-black" viewBox="0 0 32 32">
<path d="M32 3.223l-3.223-3.223-12.777 12.777-12.777-12.777-3.223 3.223 12.777 12.777-12.777 12.777 3.223 3.223 12.777-12.777 12.777 12.777 3.223-3.223-12.777-12.777 12.777-12.777z"></path>
</symbol>
<symbol id="icon-phone-black" viewBox="0 0 24 32">
<path d="M19.635 18.487l-2.451-0.28c-0.589-0.067-1.167 0.135-1.582 0.55l-1.775 1.775c-2.731-1.389-4.969-3.618-6.359-6.359l1.785-1.785c0.415-0.415 0.618-0.994 0.55-1.582l-0.28-2.432c-0.116-0.975-0.936-1.708-1.92-1.708h-1.669c-1.090 0-1.997 0.907-1.93 1.997 0.511 8.24 7.102 14.821 15.332 15.332 1.090 0.068 1.997-0.839 1.997-1.93v-1.669c0.010-0.975-0.724-1.795-1.698-1.911z"></path>
</symbol>
<symbol id="icon-Checkbox" viewBox="0 0 32 32">
<path stroke-linejoin="miter" stroke-linecap="butt" stroke-miterlimit="4" stroke-width="2" d="M4 1h24c1.657 0 3 1.343 3 3v24c0 1.657-1.343 3-3 3h-24c-1.657 0-3-1.343-3-3v-24c0-1.657 1.343-3 3-3z"></path>
</symbol>
<symbol id="icon-vector" viewBox="0 0 40 32">
<path d="M33.843 1.958c0.657-0.578 1.532-0.897 2.44-0.891s1.777 0.338 2.425 0.925c0.648 0.587 1.023 1.383 1.047 2.221s-0.305 1.651-0.919 2.269l-18.62 21.495c-0.32 0.318-0.707 0.574-1.136 0.751s-0.893 0.273-1.364 0.281c-0.47 0.008-0.938-0.072-1.374-0.234s-0.833-0.405-1.166-0.712l-12.348-11.398c-0.344-0.296-0.62-0.652-0.811-1.049s-0.294-0.824-0.302-1.258c-0.008-0.434 0.078-0.865 0.254-1.267s0.438-0.768 0.77-1.075 0.728-0.549 1.164-0.711c0.436-0.162 0.903-0.242 1.373-0.235s0.933 0.103 1.363 0.279c0.429 0.177 0.816 0.431 1.136 0.749l9.772 9.016 16.207-19.062c0.029-0.033 0.060-0.065 0.093-0.095h-0.005z"></path>
</symbol>
<symbol id="icon-icon-send" viewBox="0 0 38 32">
<path d="M38.4 0l-38.4 18 12.272 3.788 18.928-14.788-14.397 16.186 0.012 0.004-0.014-0.004v8.814l6.882-6.691 8.718 2.691 6-28z"></path>
</symbol>
<symbol id="icon-menu" viewBox="0 0 32 32">
<path d="M4.8 8c0-0.884 0.716-1.6 1.6-1.6h19.2c0.884 0 1.6 0.716 1.6 1.6s-0.716 1.6-1.6 1.6h-19.2c-0.884 0-1.6-0.716-1.6-1.6v0zM4.8 16c0-0.884 0.716-1.6 1.6-1.6h19.2c0.884 0 1.6 0.716 1.6 1.6s-0.716 1.6-1.6 1.6h-19.2c-0.884 0-1.6-0.716-1.6-1.6v0zM4.8 24c0-0.884 0.716-1.6 1.6-1.6h19.2c0.884 0 1.6 0.716 1.6 1.6s-0.716 1.6-1.6 1.6h-19.2c-0.884 0-1.6-0.716-1.6-1.6v0z"></path>
</symbol>
<symbol id="icon-close" viewBox="0 0 32 32">
<path d="M32 3.223l-3.223-3.223-12.777 12.777-12.777-12.777-3.223 3.223 12.777 12.777-12.777 12.777 3.223 3.223 12.777-12.777 12.777 12.777 3.223-3.223-12.777-12.777 12.777-12.777z"></path>
</symbol>
<symbol id="burger-menu" viewBox="0 0 32 32">
<path d="M4.8 8c0-0.884 0.716-1.6 1.6-1.6h19.2c0.884 0 1.6 0.716 1.6 1.6s-0.716 1.6-1.6 1.6h-19.2c-0.884 0-1.6-0.716-1.6-1.6v0zM4.8 16c0-0.884 0.716-1.6 1.6-1.6h19.2c0.884 0 1.6 0.716 1.6 1.6s-0.716 1.6-1.6 1.6h-19.2c-0.884 0-1.6-0.716-1.6-1.6v0zM4.8 24c0-0.884 0.716-1.6 1.6-1.6h19.2c0.884 0 1.6 0.716 1.6 1.6s-0.716 1.6-1.6 1.6h-19.2c-0.884 0-1.6-0.716-1.6-1.6v0z"></path>
</symbol>
<symbol id="icon-Ellipse" viewBox="0 0 32 32">
<path fill="#e7e9fc" style="fill: var(--color1, #e7e9fc)" opacity="0.1" stroke-linejoin="miter" stroke-linecap="butt" stroke-miterlimit="4" stroke-width="1.3333" stroke="#000" d="M31.333 16c0 8.468-6.865 15.333-15.333 15.333s-15.333-6.865-15.333-15.333c0-8.468 6.865-15.333 15.333-15.333s15.333 6.865 15.333 15.333z"></path>
</symbol>
<symbol id="icon-logo" viewBox="0 0 36 32">
<path fill="#02bc6b" style="fill: var(--color1, #02bc6b)" d="M2.785 30.323c-1.532 0-2.785-1.241-2.785-2.757v-9.639h7.010v-0.011h4.213c1.086-0.028 2.005-0.965 2.005-2.068 0-1.13-0.947-2.068-2.089-2.068l-11.14 0.002v-2.759c0-1.516 1.253-2.757 2.785-2.757h8.355c2.117 0 3.927 0.744 5.403 2.233 1.504 1.461 2.256 3.253 2.256 5.349 0 2.068-0.724 3.86-2.2 5.321s-3.258 2.233-5.347 2.261h-5.681v4.136c0 1.516-1.253 2.757-2.785 2.757z"></path>
<path fill="#02897a" style="fill: var(--color2, #02897a)" d="M22.309 5.067c3.077 2.959 4.627 6.644 4.627 10.832 0 4.118-1.486 7.8-4.515 10.768l-4.301-4.006c1.884-1.846 2.809-4.068 2.809-6.761 0-2.714-0.953-4.933-2.882-6.788l4.262-4.044z"></path>
<path fill="#035b81" style="fill: var(--color3, #035b81)" d="M28.894 0c4.432 4.38 6.662 9.812 6.662 16.046 0 6.136-2.14 11.564-6.499 15.954l-4.151-4.015c3.247-3.27 4.838-7.236 4.838-11.939 0-4.75-1.645-8.713-4.962-11.992l4.113-4.053z"></path>
<path fill="#028e37" style="fill: var(--color4, #028e37)" d="M0 23.454h5.57v4.113c0 1.516-1.253 2.757-2.785 2.757s-2.785-1.241-2.785-2.757v-4.113z"></path>
</symbol>
<symbol id="icon-Triangle" viewBox="0 0 29 32">
<path d="M27.343 14.302c1.269 0.728 1.269 2.558 0 3.287l-23.642 13.57c-1.263 0.725-2.838-0.187-2.838-1.643v-27.14c0-1.456 1.575-2.368 2.838-1.643l23.642 13.57z"></path>
</symbol>
<symbol id="icon-First-click-tests" viewBox="0 0 32 32">
<path d="M11.922 0.607h7.529c6.584 0 11.922 5.337 11.922 11.922v7.529c0 6.584-5.337 11.922-11.922 11.922h-7.529c-6.584 0-11.922-5.337-11.922-11.922v-7.529c0-6.584 5.337-11.922 11.922-11.922z"></path>
<path d="M18.269 17.296l-5.737-5.737c-0.067-0.073-0.157-0.106-0.252-0.106-0.045 0-0.095 0.011-0.134 0.028-0.134 0.056-0.224 0.185-0.224 0.331v8.426c0 0.146 0.090 0.274 0.224 0.331 0.039 0.017 0.090 0.028 0.134 0.028 0.095 0 0.185-0.039 0.252-0.106l1.748-1.748 1.070 2.532c0.078 0.179 0.286 0.269 0.471 0.19l0.992-0.42c0.179-0.078 0.269-0.286 0.191-0.471l-1.126-2.667h2.14c0.146 0 0.274-0.090 0.331-0.224 0.056-0.129 0.028-0.286-0.078-0.387z"></path>
</symbol>
<symbol id="icon-green" viewBox="0 0 21 32">
<path d="M19.042 18.007l-17.21-17.21c-0.202-0.219-0.471-0.319-0.756-0.319-0.134 0-0.286 0.034-0.403 0.084-0.403 0.168-0.672 0.555-0.672 0.992v25.277c0 0.437 0.269 0.824 0.672 0.992 0.118 0.050 0.269 0.084 0.403 0.084 0.286 0 0.555-0.118 0.756-0.319l5.244-5.244 3.21 7.597c0.235 0.538 0.857 0.807 1.412 0.571l2.975-1.26c0.538-0.235 0.807-0.857 0.571-1.412l-3.378-8h6.42c0.437 0 0.824-0.269 0.992-0.672 0.168-0.387 0.084-0.857-0.235-1.16z"></path>
</symbol>
<symbol id="icon-blue" viewBox="0 0 41 32">
<path d="M21.673 12.824l2.674 1.245 3.98-1.184v-2.776c0-4.714-3.98-8.49-8.735-8.49-4.735 0-8.735 3.755-8.735 8.429v12.653c0 1.163-0.939 2.082-2.082 2.082s-2.082-0.918-2.082-2.082v-5.347h-6.694c0 5.367 0 5.429 0 5.429 0 4.837 3.918 8.755 8.755 8.755 4.796 0 8.755-3.857 8.755-8.633v-12.49c0-1.143 0.939-2.082 2.082-2.082s2.082 0.939 2.082 2.082v2.408zM32.49 17.355v5.612c0 1.143-0.939 2.061-2.082 2.061s-2.082-0.918-2.082-2.061v-5.51l-3.98 1.184-2.674-1.245v5.469c0 4.796 3.939 8.673 8.755 8.673 4.837 0 8.755-3.918 8.755-8.755 0 0 0-0.061 0-5.429h-6.694z"></path>
</symbol>
<symbol id="icon-heart" viewBox="0 0 34 32">
<path d="M17.067 30.103c0.305 0 0.61-0.114 0.838-0.343l11.867-11.429c0.171-0.171 4.362-4 4.362-8.571 0-5.581-3.41-8.914-9.105-8.914-3.333 0-6.457 2.629-7.962 4.114-1.505-1.486-4.629-4.114-7.962-4.114-5.695 0-9.105 3.333-9.105 8.914 0 4.571 4.191 8.4 4.343 8.533l11.886 11.467c0.229 0.229 0.533 0.343 0.838 0.343z"></path>
</symbol>
<symbol id="icon-timer" viewBox="0 0 26 32">
<path d="M23.664 2.628h1.614c0.302 0 0.538-0.235 0.538-0.538v-1.076c0-0.303-0.235-0.538-0.538-0.538h-24.74c-0.303 0-0.538 0.235-0.538 0.538v1.076c0 0.303 0.235 0.538 0.538 0.538h1.613c0 6.218 2.975 10.723 6.269 12.908-3.294 2.185-6.269 6.689-6.269 12.908h-1.613c-0.303 0-0.538 0.235-0.538 0.538v1.076c0 0.302 0.235 0.538 0.538 0.538h24.74c0.302 0 0.538-0.235 0.538-0.538v-1.076c0-0.302-0.235-0.538-0.538-0.538h-1.614c0-6.218-2.975-10.723-6.269-12.908 3.294-2.185 6.269-6.689 6.269-12.908zM21.513 2.628c0 2.454-0.555 4.622-1.429 6.454h-14.353c-0.874-1.832-1.429-4-1.429-6.454h17.21zM20.555 23.065h-15.294c1.244-3.244 3.479-5.546 5.714-6.454h3.866c2.235 0.908 4.471 3.21 5.714 6.454z"></path>
</symbol>
<symbol id="icon-Path" viewBox="0 0 39 32">
<path d="M38.808 1.462c-0.769-0.785-2.016-0.785-2.785 0l-23.593 24.095-9.069-9.262c-0.769-0.785-2.016-0.785-2.785 0s-0.769 2.059 0 2.844l10.461 10.683c0.769 0.785 2.016 0.785 2.785 0l24.985-25.516c0.769-0.785 0.769-2.059 0-2.844z"></path>
</symbol>
<symbol id="icon-tick" viewBox="0 0 39 32">
<path d="M38.808 2.039c-0.769-0.785-2.016-0.785-2.785 0l-23.593 24.094-9.069-9.261c-0.769-0.785-2.016-0.785-2.785 0s-0.769 2.059 0 2.844l10.461 10.683c0.769 0.785 2.016 0.785 2.785 0l24.985-25.516c0.769-0.785 0.769-2.059 0-2.844z"></path>
</symbol>
<symbol id="icon-0" viewBox="0 0 24 32">
<path d="M0.348 15.967c0-4.808 0.922-8.596 2.767-11.363 1.873-2.767 4.878-4.151 9.015-4.151s7.128 1.384 8.973 4.151c1.873 2.767 2.809 6.555 2.809 11.363 0 4.864-0.936 8.68-2.809 11.447-1.845 2.767-4.836 4.151-8.973 4.151s-7.142-1.384-9.015-4.151c-1.845-2.767-2.767-6.583-2.767-11.447zM16.869 15.967c0-2.823-0.307-4.99-0.922-6.499-0.615-1.537-1.887-2.306-3.816-2.306s-3.201 0.769-3.816 2.306c-0.615 1.51-0.922 3.676-0.922 6.499 0 1.901 0.112 3.48 0.335 4.738 0.224 1.23 0.671 2.236 1.342 3.019 0.699 0.755 1.719 1.132 3.061 1.132s2.348-0.377 3.019-1.132c0.699-0.783 1.16-1.789 1.384-3.019 0.224-1.258 0.335-2.837 0.335-4.738z"></path>
</symbol>
<symbol id="icon-5" viewBox="0 0 22 32">
<path d="M20.642 6.896h-13.312v5.888c0.569-0.626 1.365-1.138 2.389-1.536s2.133-0.597 3.328-0.597c2.133 0 3.897 0.484 5.291 1.451 1.422 0.967 2.46 2.219 3.115 3.755s0.981 3.2 0.981 4.992c0 3.328-0.939 5.973-2.816 7.936-1.877 1.934-4.523 2.901-7.936 2.901-2.276 0-4.252-0.384-5.931-1.152-1.678-0.796-2.972-1.892-3.883-3.285s-1.408-3.001-1.493-4.821h7.125c0.171 0.882 0.583 1.621 1.237 2.219 0.654 0.569 1.55 0.853 2.688 0.853 1.337 0 2.332-0.427 2.987-1.28s0.981-1.991 0.981-3.413c0-1.394-0.341-2.46-1.024-3.2s-1.678-1.109-2.987-1.109c-0.967 0-1.764 0.242-2.389 0.725-0.626 0.455-1.038 1.067-1.237 1.835h-7.040v-18.56h19.925v6.4z"></path>
</symbol>
<symbol id="icon-10" viewBox="0 0 41 32">
<path d="M0.207 7.748v-6.667h11.615v30.61h-7.464v-23.943h-4.151zM16.838 15.967c0-4.808 0.922-8.596 2.767-11.363 1.873-2.767 4.878-4.151 9.015-4.151s7.128 1.384 8.973 4.151c1.873 2.767 2.809 6.555 2.809 11.363 0 4.864-0.937 8.68-2.809 11.447-1.845 2.767-4.836 4.151-8.973 4.151s-7.142-1.384-9.015-4.151c-1.845-2.767-2.767-6.583-2.767-11.447zM33.358 15.967c0-2.823-0.307-4.99-0.922-6.499-0.615-1.537-1.887-2.306-3.816-2.306s-3.201 0.769-3.816 2.306c-0.615 1.51-0.922 3.676-0.922 6.499 0 1.901 0.112 3.48 0.335 4.738 0.224 1.23 0.671 2.236 1.342 3.019 0.699 0.755 1.719 1.132 3.061 1.132s2.348-0.377 3.019-1.132c0.699-0.783 1.16-1.789 1.384-3.019 0.224-1.258 0.335-2.837 0.335-4.738z"></path>
</symbol>
<symbol id="icon-Dollar" viewBox="0 0 21 32">
<path d="M9.593 31.474h2.798l0.024-2.739c5.134-0.391 8.111-3.119 8.123-7.233-0.012-4.043-3.059-6.19-7.281-7.138l-0.7-0.166 0.047-5.929c1.577 0.368 2.538 1.376 2.68 2.87h4.921c-0.059-3.925-2.988-6.735-7.553-7.233l0.024-2.787h-2.798l-0.024 2.763c-4.636 0.451-7.909 3.249-7.885 7.293-0.012 3.581 2.514 5.632 6.617 6.617l1.138 0.285-0.059 6.273c-1.933-0.368-3.237-1.553-3.368-3.534h-4.968c0.119 4.791 3.261 7.47 8.289 7.909l-0.024 2.751zM12.462 24.347l0.047-5.538c1.838 0.581 2.834 1.328 2.846 2.68-0.012 1.435-1.103 2.502-2.893 2.858zM9.759 13.474c-1.482-0.51-2.549-1.281-2.526-2.644 0-1.269 0.901-2.253 2.573-2.597l-0.047 5.241z"></path>
</symbol>
<symbol id="icon-star-mob-1" viewBox="0 0 32 32">
<path d="M30.884 11.093c-0.097-0.286-0.276-0.537-0.514-0.723s-0.526-0.297-0.827-0.321l-8.807-0.7-3.811-8.436c-0.121-0.272-0.319-0.502-0.568-0.664s-0.541-0.248-0.838-0.248c-0.298-0-0.589 0.086-0.839 0.248s-0.447 0.392-0.569 0.664l-3.811 8.438-8.807 0.7c-0.296 0.023-0.579 0.132-0.815 0.312s-0.415 0.424-0.516 0.703c-0.101 0.279-0.119 0.581-0.053 0.871s0.215 0.553 0.427 0.761l6.508 6.345-2.302 9.967c-0.070 0.302-0.047 0.617 0.064 0.906s0.308 0.537 0.563 0.713c0.255 0.176 0.557 0.271 0.866 0.274s0.613-0.088 0.87-0.261l8.412-5.608 8.412 5.608c0.263 0.175 0.573 0.265 0.889 0.258s0.622-0.11 0.877-0.296c0.255-0.186 0.447-0.446 0.551-0.744s0.112-0.621 0.027-0.925l-2.826-9.887 7.007-6.306c0.459-0.414 0.627-1.060 0.429-1.645z"></path>
</symbol>
<symbol id="icon-star-mob-2" viewBox="0 0 32 32">
<path d="M7.070 19.039l-2.302 9.967c-0.071 0.302-0.050 0.618 0.061 0.908s0.307 0.539 0.562 0.715 0.557 0.272 0.868 0.274c0.31 0.002 0.614-0.090 0.871-0.263l8.412-5.608 8.412 5.608c0.263 0.175 0.573 0.265 0.889 0.258s0.622-0.11 0.877-0.297c0.255-0.186 0.447-0.446 0.551-0.744s0.113-0.621 0.027-0.925l-2.825-9.887 7.007-6.306c0.224-0.202 0.385-0.466 0.461-0.758s0.065-0.6-0.032-0.886c-0.097-0.286-0.276-0.537-0.514-0.723s-0.526-0.297-0.827-0.321l-8.807-0.701-3.811-8.436c-0.121-0.272-0.319-0.502-0.569-0.664s-0.541-0.248-0.839-0.248c-0.298 0-0.589 0.086-0.839 0.248s-0.447 0.393-0.569 0.664l-3.811 8.436-8.807 0.7c-0.296 0.023-0.579 0.132-0.815 0.312s-0.415 0.424-0.516 0.703c-0.101 0.279-0.119 0.581-0.053 0.871s0.215 0.553 0.427 0.761l6.51 6.345zM11.478 12.356c0.276-0.022 0.541-0.117 0.767-0.277s0.405-0.376 0.519-0.629l2.779-6.15 2.779 6.15c0.113 0.252 0.293 0.47 0.519 0.629s0.491 0.255 0.767 0.277l6.136 0.487-5.053 4.548c-0.439 0.395-0.613 1.004-0.453 1.573l1.936 6.774-5.771-3.848c-0.253-0.17-0.552-0.261-0.857-0.261s-0.603 0.091-0.857 0.261l-6.031 4.021 1.622-7.023c0.059-0.258 0.052-0.527-0.023-0.782s-0.214-0.485-0.403-0.67l-4.693-4.576 6.318-0.504z"></path>
</symbol>
<symbol id="icon-Group-1343" viewBox="0 0 32 32">
<path d="M32 16c0 8.837-7.163 16-16 16s-16-7.163-16-16c0-8.837 7.163-16 16-16s16 7.163 16 16z"></path>
<path stroke-linejoin="round" stroke-linecap="round" stroke-miterlimit="4" stroke-width="1.6" d="M24.8 8.808c-0.766 0.54-1.614 0.954-2.512 1.224-0.482-0.554-1.122-0.947-1.834-1.125s-1.462-0.133-2.148 0.128c-0.686 0.262-1.275 0.728-1.687 1.335s-0.628 1.327-0.618 2.061v0.8c-1.406 0.036-2.799-0.275-4.055-0.908s-2.337-1.565-3.145-2.716c0 0-3.2 7.2 4 10.4-1.648 1.118-3.61 1.679-5.6 1.6 7.2 4 16 0 16-9.2-0.001-0.223-0.022-0.445-0.064-0.664 0.816-0.805 1.393-1.822 1.664-2.936v0z"></path>
</symbol>
<symbol id="icon-Group-1342" viewBox="0 0 32 32">
<path d="M32 16c0 8.837-7.163 16-16 16s-16-7.163-16-16c0-8.837 7.163-16 16-16s16 7.163 16 16z"></path>
<path stroke-linejoin="round" stroke-linecap="round" stroke-miterlimit="4" stroke-width="1.6" d="M20.8 8h-2.4c-1.061 0-2.078 0.421-2.828 1.172s-1.172 1.768-1.172 2.828v2.4h-2.4v3.2h2.4v6.4h3.2v-6.4h2.4l0.8-3.2h-3.2v-2.4c0-0.212 0.084-0.416 0.234-0.566s0.354-0.234 0.566-0.234h2.4v-3.2z"></path>
</symbol>
<symbol id="icon-Group-1340" viewBox="0 0 31 32">
<path d="M31.22 15.622c0 8.621-6.989 15.61-15.61 15.61s-15.61-6.989-15.61-15.61c0-8.621 6.989-15.61 15.61-15.61s15.61 6.989 15.61 15.61z"></path>
<path stroke-linejoin="round" stroke-linecap="round" stroke-miterlimit="4" stroke-width="1.561" d="M19.512 7.817h-7.805c-2.155 0-3.902 1.747-3.902 3.902v7.805c0 2.155 1.747 3.902 3.902 3.902h7.805c2.155 0 3.902-1.747 3.902-3.902v-7.805c0-2.155-1.747-3.902-3.902-3.902z"></path>
<path stroke-linejoin="round" stroke-linecap="round" stroke-miterlimit="4" stroke-width="1.561" d="M18.732 15.13c0.096 0.65-0.015 1.313-0.317 1.896s-0.781 1.056-1.368 1.351c-0.587 0.295-1.251 0.398-1.9 0.294s-1.247-0.41-1.712-0.875c-0.464-0.464-0.77-1.063-0.875-1.712s-0.002-1.313 0.294-1.9c0.295-0.587 0.768-1.065 1.351-1.367s1.246-0.413 1.896-0.317c0.663 0.098 1.276 0.407 1.75 0.881s0.782 1.087 0.881 1.75z"></path>
<path stroke-linejoin="round" stroke-linecap="round" stroke-miterlimit="4" stroke-width="1.561" d="M19.902 11.329h0.008"></path>
</symbol>
<symbol id="icon-facebook-business" viewBox="0 0 32 32">
<path stroke-linejoin="round" stroke-linecap="round" stroke-miterlimit="4" stroke-width="2.6667" d="M24 2.667h-4c-1.768 0-3.464 0.702-4.714 1.953s-1.953 2.946-1.953 4.714v4h-4v5.333h4v10.667h5.333v-10.667h4l1.333-5.333h-5.333v-4c0-0.354 0.141-0.693 0.391-0.943s0.589-0.391 0.943-0.391h4v-5.333z"></path>
</symbol>
<symbol id="icon-instagram-business" viewBox="0 0 31 32">
<path stroke-linejoin="round" stroke-linecap="round" stroke-miterlimit="4" stroke-width="2.56" d="M21.76 2.58h-12.8c-3.535 0-6.4 2.865-6.4 6.4v12.8c0 3.535 2.865 6.4 6.4 6.4h12.8c3.535 0 6.4-2.865 6.4-6.4v-12.8c0-3.535-2.865-6.4-6.4-6.4z"></path>
<path stroke-linejoin="round" stroke-linecap="round" stroke-miterlimit="4" stroke-width="2.56" d="M20.48 14.574c0.158 1.065-0.024 2.153-0.52 3.109s-1.281 1.731-2.243 2.215c-0.962 0.484-2.052 0.653-3.115 0.482s-2.046-0.673-2.807-1.435-1.264-1.744-1.435-2.807c-0.171-1.063-0.003-2.153 0.482-3.115s1.259-1.747 2.215-2.243c0.956-0.496 2.044-0.678 3.109-0.52 1.087 0.161 2.093 0.667 2.869 1.444s1.283 1.783 1.444 2.869z"></path>
<path stroke-linejoin="round" stroke-linecap="round" stroke-miterlimit="4" stroke-width="2.56" d="M22.4 8.34h0.013"></path>
</symbol>
<symbol id="icon-twiter-business" viewBox="0 0 38 32">
<path fill="none" stroke="#02897a" style="stroke: var(--color1, #02897a)" stroke-linejoin="round" stroke-linecap="round" stroke-miterlimit="4" stroke-width="3.2" d="M36.8 1.616c-1.532 1.081-3.229 1.907-5.024 2.448-0.964-1.108-2.244-1.893-3.669-2.25s-2.924-0.267-4.296 0.257c-1.372 0.524-2.55 1.456-3.375 2.671s-1.256 2.654-1.237 4.122v1.6c-2.812 0.073-5.598-0.551-8.11-1.815s-4.673-3.131-6.29-5.433c0 0-6.4 14.4 8 20.8-3.295 2.237-7.221 3.358-11.2 3.2 14.4 8 32 0 32-18.4-0.001-0.446-0.044-0.89-0.128-1.328 1.633-1.61 2.785-3.644 3.328-5.872z"></path>
</symbol>
<symbol id="icon-mobile-screen" viewBox="0 0 21 32">
<path d="M16.935 2.286h-13.299c-1.377 0-2.494 1.152-2.494 2.571v22.286c0 1.42 1.117 2.571 2.494 2.571h13.299c1.377 0 2.494-1.152 2.494-2.571v-22.286c0-1.42-1.117-2.571-2.494-2.571zM12.779 26.238c0 0.52-0.374 0.905-0.831 0.905h-3.371c-0.41 0-0.784-0.386-0.784-0.857s0.374-0.857 0.831-0.857h3.325c0.457 0 0.831 0.386 0.831 0.809zM16.104 22.857h-11.636v-17.143h11.636v17.143z"></path>
</symbol>

<symbol id="icon-fullstack1" viewBox="0 0 32 32">
<path d="M5.376 3.189c-0.501 0.235-0.853 0.629-1.013 1.173-0.075 0.256-0.096 2.581-0.075 6.955l0.032 6.571 0.32 0.512c0.213 0.341 0.48 0.597 0.789 0.768l0.469 0.245h20.203l0.469-0.245c0.309-0.171 0.576-0.427 0.789-0.768l0.32-0.512 0.032-6.571c0.021-4.395 0-6.699-0.075-6.955-0.16-0.544-0.512-0.939-1.013-1.173-0.416-0.192-0.939-0.203-10.624-0.203s-10.208 0.011-10.624 0.203zM26.261 3.52c0.213 0.064 0.512 0.256 0.661 0.437 0.277 0.32 0.277 0.352 0.277 1.995 0 1.611-0.011 1.664-0.171 1.333-0.128-0.245-0.288-0.384-0.565-0.459-0.427-0.117-20.331-0.16-20.917-0.043-0.213 0.053-0.405 0.181-0.523 0.373-0.107 0.171-0.224 0.277-0.256 0.235-0.139-0.139-0.085-2.688 0.075-3.051 0.171-0.416 0.48-0.693 0.875-0.821 0.459-0.128 20.053-0.128 20.544 0zM26.667 12.448v5.259l-0.309 0.341-0.309 0.352h-20.096l-0.309-0.352-0.309-0.341v-10.507h21.333v5.248zM5.451 18.443c0.181 0.181 0.288 0.331 0.235 0.331-0.181 0-0.661-0.501-0.779-0.8-0.16-0.427-0.117-0.587 0.053-0.192 0.075 0.181 0.299 0.48 0.491 0.661zM27.040 18.069c-0.096 0.203-0.299 0.448-0.437 0.544-0.224 0.139-0.203 0.096 0.117-0.32 0.203-0.277 0.373-0.576 0.384-0.672 0-0.107 0.032-0.128 0.053-0.053 0.032 0.075-0.021 0.299-0.117 0.501z"></path>
<path d="M5.963 4.469c-0.224 0.235-0.309 0.416-0.309 0.704 0 0.533 0.469 1.013 0.992 1.013 0.288 0 0.448-0.085 0.704-0.384l0.331-0.373 0.363 0.373c0.512 0.544 0.971 0.533 1.483-0.032l0.384-0.427 0.181 0.288c0.427 0.661 1.035 0.747 1.547 0.245 0.427-0.427 0.427-0.939 0-1.387-0.448-0.48-0.885-0.459-1.387 0.075l-0.384 0.405-0.384-0.405c-0.491-0.523-0.896-0.544-1.365-0.075-0.181 0.181-0.331 0.373-0.331 0.427s-0.181-0.085-0.405-0.331c-0.523-0.544-0.949-0.576-1.419-0.117zM7.083 4.789c0.256 0.277 0.181 0.64-0.171 0.896l-0.299 0.224-0.288-0.224c-0.363-0.267-0.416-0.501-0.203-0.832s0.693-0.352 0.96-0.064zM9.216 4.757c0.384 0.373 0.096 1.003-0.459 1.003-0.363 0-0.565-0.224-0.565-0.587 0-0.149 0.053-0.341 0.128-0.427 0.171-0.213 0.683-0.203 0.896 0.011zM11.413 4.747c0.075 0.085 0.139 0.277 0.139 0.427 0 0.384-0.224 0.587-0.629 0.587-0.373 0-0.576-0.213-0.576-0.629 0-0.469 0.768-0.747 1.067-0.384z"></path>
<path d="M17.344 8.992c-0.117 0.085-0.619 1.429-1.344 3.648-1.184 3.563-1.227 3.765-0.8 3.936 0.437 0.16 0.565-0.096 1.707-3.605 0.619-1.899 1.12-3.552 1.12-3.669 0-0.128-0.096-0.277-0.203-0.341-0.267-0.139-0.256-0.139-0.48 0.032z"></path>
<path d="M11.221 11.179c-0.779 0.747-1.408 1.419-1.408 1.504 0 0.139 2.507 2.624 2.816 2.795 0.245 0.139 0.597-0.096 0.597-0.405 0-0.245-0.213-0.501-1.109-1.333l-1.109-1.035 1.109-1.099c1.099-1.077 1.269-1.376 0.981-1.664-0.075-0.075-0.203-0.128-0.288-0.128-0.096 0-0.811 0.619-1.589 1.365zM10.773 12.437c-0.075 0.181-0.064 0.341 0.011 0.491 0.171 0.309 0.064 0.331-0.213 0.053l-0.224-0.256 0.224-0.277c0.277-0.363 0.331-0.363 0.203-0.011z"></path>
<path d="M18.837 10.037c-0.213 0.32-0.171 0.384 1.088 1.621l1.056 1.035-1.152 1.099c-0.64 0.608-1.163 1.163-1.163 1.227 0 0.16 0.384 0.555 0.533 0.555 0.203 0 2.987-2.688 2.987-2.88 0-0.235-2.699-2.816-2.987-2.859-0.107-0.021-0.267 0.075-0.363 0.203zM21.547 12.693c0 0.096-0.096 0.267-0.213 0.373-0.235 0.213-0.277 0.149-0.107-0.16 0.075-0.139 0.075-0.299-0.011-0.491-0.107-0.299-0.107-0.299 0.107-0.096 0.128 0.107 0.224 0.277 0.224 0.373z"></path>
<path d="M10.293 22.027v1.867h0.8v-1.493h1.387v-0.64h-1.387v-0.907l0.747 0.032 0.747 0.043v-0.768h-2.293v1.867z"></path>
<path d="M13.12 21.515c0 1.525 0.128 1.899 0.736 2.219 0.459 0.235 1.376 0.203 1.803-0.053 0.533-0.331 0.661-0.757 0.661-2.24v-1.28h-0.853v1.28c0 1.237-0.011 1.301-0.277 1.568-0.213 0.213-0.331 0.256-0.608 0.203-0.544-0.107-0.608-0.288-0.608-1.739v-1.312h-0.853v1.355z"></path>
<path d="M16.96 22.027v1.867h2.347v-0.747h-1.493v-2.987h-0.853v1.867z"></path>
<path d="M19.733 22.027v1.867h2.347v-0.747h-1.493v-2.987h-0.853v1.867z"></path>
<path d="M8.779 24.8c-0.352 0.149-0.672 0.629-0.672 1.013 0 0.363 0.533 0.811 1.195 1.003 0.715 0.203 0.896 0.384 0.725 0.693-0.171 0.331-0.789 0.299-1.109-0.043-0.171-0.181-0.363-0.267-0.587-0.267-0.309 0-0.341 0.021-0.277 0.235 0.043 0.139 0.213 0.384 0.384 0.565 0.288 0.299 0.373 0.32 1.067 0.32 0.715 0 0.768-0.021 1.067-0.352 0.331-0.363 0.384-0.704 0.192-1.131-0.128-0.277-0.469-0.469-1.216-0.704-0.704-0.224-0.821-0.384-0.523-0.683 0.224-0.224 0.64-0.213 0.875 0.021 0.117 0.117 0.352 0.235 0.533 0.267 0.277 0.053 0.341 0.032 0.341-0.117 0-0.48-0.704-0.981-1.355-0.981-0.16 0.011-0.448 0.075-0.64 0.16z"></path>
<path d="M18.229 24.875c-1.099 0.629-1.195 2.453-0.192 3.211 0.363 0.256 1.131 0.352 1.632 0.181 0.373-0.117 0.917-0.683 0.917-0.939 0-0.235-0.747-0.149-0.96 0.107-0.267 0.331-0.917 0.32-1.184-0.011-0.277-0.331-0.363-0.917-0.213-1.419 0.107-0.32 0.213-0.459 0.491-0.576 0.427-0.171 0.896-0.053 0.981 0.267 0.032 0.149 0.171 0.213 0.469 0.245 0.48 0.043 0.533-0.096 0.213-0.619-0.405-0.661-1.429-0.875-2.155-0.448z"></path>
<path d="M23.573 24.725c-0.459 0.032-0.501 0.064-1.013 0.768-0.288 0.405-0.555 0.736-0.587 0.736-0.032 0.011-0.043-0.331-0.021-0.736l0.043-0.747h-0.875v3.627h0.853v-0.565c0-0.309 0.075-0.64 0.16-0.747 0.139-0.192 0.181-0.149 0.651 0.555 0.491 0.747 0.501 0.757 0.971 0.757 0.352 0 0.448-0.032 0.395-0.139-0.053-0.064-0.363-0.523-0.704-1.003s-0.619-0.907-0.619-0.949c0-0.043 0.299-0.405 0.651-0.811 0.363-0.405 0.64-0.747 0.619-0.757s-0.256-0.011-0.523 0.011zM21.963 26.485c0.085 0.117 0.064 0.192-0.085 0.331-0.192 0.181-0.213 0.171-0.277-0.032-0.117-0.384 0.128-0.576 0.363-0.299z"></path>
<path d="M11.093 25.109v0.352l1.067-0.107v3.019h0.747v-3.008l0.512 0.043c0.501 0.032 0.501 0.032 0.533-0.32l0.032-0.341h-2.891v0.363z"></path>
<path d="M14.368 26.485c-0.331 0.96-0.608 1.781-0.608 1.824s0.181 0.064 0.395 0.043c0.341-0.032 0.405-0.085 0.512-0.405l0.128-0.373h1.355l0.096 0.395c0.096 0.395 0.117 0.405 0.544 0.405h0.459l-1.301-3.627h-0.971l-0.608 1.739zM15.701 26.219c0.107 0.331 0.192 0.64 0.192 0.683 0 0.053-0.213 0.085-0.469 0.085h-0.469l0.235-0.736c0.117-0.405 0.245-0.715 0.277-0.693 0.021 0.032 0.128 0.32 0.235 0.661z"></path>
</symbol>

<symbol id="icon-fullstack1" viewBox="0 0 32 32">
<svg width="40" height="36" viewBox="0 0 40 36">
  <rect width="40" height="36" rx="4" fill="#FFFFFF" stroke="#000" stroke-width="1"/>
  
  <!-- Frontend: browser frame with code -->
  <rect x="5" y="5" width="30" height="10" rx="2" fill="#FFFFFF" stroke="#000" stroke-width="0.5"/>
  <text x="9" y="13" font-size="6" font-family="monospace" fill="#000000">&lt;/&gt;</text>

  <!-- Backend: stacked bars -->
  <rect x="9" y="19" width="22" height="2.5" rx="0.5" fill="#000000"/>
  <rect x="9" y="23" width="22" height="2.5" rx="0.5" fill="#000000"/>
  <rect x="9" y="27" width="22" height="2.5" rx="0.5" fill="#000000"/>

  <!-- Label -->
  <text x="20" y="34" font-size="5" font-family="sans-serif" fill="#000000" text-anchor="middle">FULLSTACK</text>
</svg>
</symbol>

<symbol id="icon-telegram" viewBox="0 0 32 32">
<path fill="#000" style="fill: var(--color1, #000)" d="M29.333 16c0 7.363-5.97 13.333-13.333 13.333s-13.333-5.97-13.333-13.333 5.97-13.333 13.333-13.333 13.333 5.97 13.333 13.333z"></path>
<path fill="#000" style="fill: var(--color1, #000)" opacity="0.05" d="M6.746 15.644c5.437-2.463 11.822-5.136 12.805-5.523 2.168-0.853 3.113 0.019 2.965 1.409-0.182 1.703-1.045 6.66-1.575 10.211-0.311 2.078-1.436 2.715-2.706 1.909-0.963-0.611-4.275-2.78-5.147-3.521-0.594-0.505-1.008-1.072-0.587-1.649 0.123-0.169 0.439-0.509 0.614-0.678 0.879-0.852 0.761-1.035-0.303-0.275-0.127 0.091-0.861 0.623-1.163 0.825-0.74 0.493-1.421 0.52-2.575 0.128-0.944-0.321-1.851-0.568-2.423-0.815-0.79-0.342-1.093-1.483 0.093-2.020z"></path>
<path fill="#000" style="fill: var(--color1, #000)" opacity="0.07" d="M7.224 15.727c5.048-2.257 11.256-4.843 12.164-5.209 2.176-0.879 2.977-0.357 2.743 1.341-0.217 1.572-0.989 6.436-1.529 9.697-0.319 1.919-1.249 2.342-2.461 1.558-0.759-0.489-3.815-2.503-4.557-3.089-0.573-0.453-1.167-0.975-0.473-1.732 0.232-0.253 1.513-1.489 2.471-2.409 0.555-0.534 0.357-0.797-0.313-0.339-1.229 0.842-3.239 2.175-3.597 2.417-0.683 0.46-1.325 0.571-2.443 0.219-0.881-0.277-1.731-0.546-2.175-0.719-0.991-0.384-1.004-1.211 0.17-1.735z"></path>
<path fill="#fff" style="fill: var(--color2, #fff)" d="M7.702 15.811c4.66-2.050 10.69-4.549 11.523-4.895 2.183-0.905 2.853-0.732 2.519 1.273-0.24 1.441-0.932 6.213-1.484 9.183-0.327 1.761-1.062 1.97-2.217 1.208-0.555-0.367-3.359-2.221-3.967-2.656-0.555-0.397-1.321-0.874-0.361-1.814 0.342-0.335 2.583-2.475 4.329-4.14 0.229-0.219-0.059-0.578-0.323-0.403-2.353 1.561-5.616 3.727-6.031 4.009-0.627 0.426-1.23 0.621-2.311 0.311-0.817-0.235-1.615-0.515-1.926-0.621-1.197-0.411-0.913-0.943 0.249-1.454z"></path>
</symbol>

<symbol id="icon-telegram1" viewBox="0 0 32 32">
<path d="M16 1.28c8.13 0 14.72 6.59 14.72 14.72s-6.59 14.72-14.72 14.72-14.72-6.59-14.72-14.72 6.59-14.72 14.72-14.72zM21.078 22c0.271-0.831 1.539-9.11 1.696-10.741 0.047-0.494-0.109-0.822-0.415-0.969-0.37-0.178-0.918-0.089-1.553 0.14-0.872 0.314-12.015 5.046-12.659 5.32-0.611 0.259-1.188 0.542-1.188 0.952 0 0.288 0.171 0.45 0.642 0.618 0.49 0.175 1.725 0.549 2.454 0.75 0.702 0.194 1.501 0.026 1.949-0.253 0.475-0.295 5.955-3.962 6.349-4.284s0.707 0.090 0.385 0.412c-0.321 0.321-4.083 3.972-4.579 4.478-0.602 0.614-0.175 1.25 0.229 1.505 0.461 0.291 3.78 2.516 4.28 2.874s1.007 0.519 1.471 0.519c0.464 0 0.708-0.611 0.94-1.321z"></path>
</symbol>

<symbol id="icon-icons8--48" viewBox="0 0 32 32">
<path d="M29.333 16c0 7.364-5.97 13.333-13.333 13.333s-13.333-5.97-13.333-13.333c0-7.364 5.97-13.333 13.333-13.333s13.333 5.97 13.333 13.333z"></path>
<path d="M22.633 10l-2.497 12.751c0 0-0.107 0.583-0.83 0.583-0.384 0-0.582-0.183-0.582-0.183l-5.409-4.489-2.647-1.334-3.397-0.903c0 0-0.605-0.175-0.605-0.675 0-0.417 0.622-0.615 0.622-0.615l14.211-5.645c-0.001-0.001 0.434-0.157 0.751-0.156 0.195 0 0.417 0.083 0.417 0.333 0 0.167-0.033 0.333-0.033 0.333z"></path>
<path d="M15.333 20.337l-2.284 2.249c0 0-0.099 0.077-0.232 0.080-0.046 0.001-0.095-0.006-0.146-0.029l0.643-3.977 2.019 1.676z"></path>
<path d="M19.931 12.131c-0.113-0.147-0.321-0.173-0.467-0.062l-8.797 5.265c0 0 1.404 3.928 1.618 4.608s0.387 0.697 0.387 0.697l0.643-3.977 6.555-6.064c0.147-0.111 0.174-0.32 0.063-0.467z"></path>
</symbol>

<symbol id="icon-icons8--96" viewBox="0 0 36 36">
<path fill="#29b6f6" style="fill: var(--color1, #29b6f6)" d="M29.333 16c0 7.364-5.97 13.333-13.333 13.333s-13.333-5.97-13.333-13.333c0-7.364 5.97-13.333 13.333-13.333s13.333 5.97 13.333 13.333z"></path>
<path fill="#fff" style="fill: var(--color2, #fff)" d="M22.633 10l-2.497 12.751c0 0-0.107 0.583-0.83 0.583-0.384 0-0.582-0.183-0.582-0.183l-5.409-4.489-2.647-1.334-3.397-0.903c0 0-0.605-0.175-0.605-0.675 0-0.417 0.622-0.615 0.622-0.615l14.211-5.645c-0.001-0.001 0.434-0.157 0.751-0.156 0.195 0 0.417 0.083 0.417 0.333 0 0.167-0.033 0.333-0.033 0.333z"></path>
<path fill="#b0bec5" style="fill: var(--color3, #b0bec5)" d="M15.333 20.337l-2.284 2.249c0 0-0.099 0.077-0.232 0.080-0.046 0.001-0.095-0.006-0.146-0.029l0.643-3.977 2.019 1.676z"></path>
<path fill="#cfd8dc" style="fill: var(--color4, #cfd8dc)" d="M19.931 12.131c-0.113-0.147-0.321-0.173-0.467-0.062l-8.797 5.265c0 0 1.404 3.928 1.618 4.608s0.387 0.697 0.387 0.697l0.643-3.977 6.555-6.064c0.147-0.111 0.174-0.32 0.063-0.467z"></path>
</symbol>

<symbol id="icon-icons8-facebook" viewBox="0 0 32 32">
<path fill="#039be5" style="fill: var(--color1, #039be5)" d="M28.667 16c0 6.996-5.671 12.667-12.667 12.667s-12.667-5.671-12.667-12.667c0-6.996 5.671-12.667 12.667-12.667s12.667 5.671 12.667 12.667z"></path>
<path fill="#fff" style="fill: var(--color2, #fff)" d="M17.715 19.357h3.278l0.515-3.33h-3.793v-1.82c0-1.383 0.452-2.61 1.746-2.61h2.079v-2.906c-0.365-0.049-1.138-0.157-2.598-0.157-3.049 0-4.836 1.61-4.836 5.278v2.215h-3.134v3.33h3.134v9.153c0.621 0.093 1.249 0.157 1.895 0.157 0.583 0 1.153-0.053 1.715-0.129v-9.18z"></path>
</symbol>

<symbol id="icon-icons8-instagram" viewBox="0 0 32 32">
<path fill="#000" style="fill: var(--color1, #000)" d="M22.678 27.993l-13.333 0.013c-2.933 0.003-5.335-2.395-5.339-5.328l-0.013-13.333c-0.003-2.933 2.395-5.335 5.328-5.339l13.333-0.013c2.933-0.003 5.335 2.395 5.339 5.328l0.013 13.333c0.003 2.934-2.395 5.336-5.328 5.339z"></path>
<path fill="#000" style="fill: var(--color1, #000)" d="M22.678 27.993l-13.333 0.013c-2.933 0.003-5.335-2.395-5.339-5.328l-0.013-13.333c-0.003-2.933 2.395-5.335 5.328-5.339l13.333-0.013c2.933-0.003 5.335 2.395 5.339 5.328l0.013 13.333c0.003 2.934-2.395 5.336-5.328 5.339z"></path>
<path fill="#fff" style="fill: var(--color2, #fff)" d="M16 20.667c-2.573 0-4.667-2.093-4.667-4.667s2.094-4.667 4.667-4.667 4.667 2.093 4.667 4.667-2.094 4.667-4.667 4.667zM16 12.667c-1.838 0-3.333 1.495-3.333 3.333s1.495 3.333 3.333 3.333 3.333-1.495 3.333-3.333-1.495-3.333-3.333-3.333z"></path>
<path fill="#fff" style="fill: var(--color2, #fff)" d="M22 11c0 0.552-0.448 1-1 1s-1-0.448-1-1c0-0.552 0.448-1 1-1s1 0.448 1 1z"></path>
<path fill="#fff" style="fill: var(--color2, #fff)" d="M20 24.667h-8c-2.573 0-4.667-2.093-4.667-4.667v-8c0-2.573 2.094-4.667 4.667-4.667h8c2.573 0 4.667 2.093 4.667 4.667v8c0 2.573-2.094 4.667-4.667 4.667zM12 8.667c-1.838 0-3.333 1.495-3.333 3.333v8c0 1.838 1.495 3.333 3.333 3.333h8c1.838 0 3.333-1.495 3.333-3.333v-8c0-1.838-1.495-3.333-3.333-3.333h-8z"></path>
</symbol>

<symbol id="icon-icons8-instagram-1" viewBox="0 0 32 32">
<path fill="#8585cc" style="fill: var(--color1, #8585cc)" d="M24.4 30.8c3.534 0 6.4-2.866 6.4-6.4v-16.8c0-3.534-2.866-6.4-6.4-6.4h-16.8c-3.534 0-6.4 2.866-6.4 6.4v16.8c0 3.534 2.866 6.4 6.4 6.4h16.8z"></path>
<path fill="#8d8dd8" style="fill: var(--color2, #8d8dd8)" d="M2.72 3.465c-0.946 1.116-1.52 2.558-1.52 4.135v16.8c0 3.534 2.866 6.4 6.4 6.4h16.8c3.534 0 6.4-2.866 6.4-6.4v-16.8c0-0.402-0.042-0.794-0.113-1.175-4.979-3.049-10.822-4.825-17.087-4.825-3.817 0-7.474 0.666-10.88 1.865z"></path>
<path fill="#bd82f4" style="fill: var(--color3, #bd82f4)" d="M1.204 7.523c-0.001 0.026-0.004 0.051-0.004 0.077v16.8c0 3.534 2.866 6.4 6.4 6.4h16.8c3.534 0 6.4-2.866 6.4-6.4v-14.082c-4.849-3.47-10.783-5.518-17.2-5.518-4.428 0-8.624 0.981-12.396 2.723z"></path>
<path fill="#ed73f4" style="fill: var(--color4, #ed73f4)" d="M1.2 11.104v13.296c0 3.534 2.866 6.4 6.4 6.4h16.8c3.534 0 6.4-2.866 6.4-6.4v-10.015c-4.621-3.974-10.626-6.385-17.2-6.385-4.485 0-8.701 1.131-12.4 3.104z"></path>
<path fill="#f97dcd" style="fill: var(--color5, #f97dcd)" d="M13.6 11.2c-4.564 0-8.811 1.331-12.4 3.607v9.593c0 3.534 2.866 6.4 6.4 6.4h16.8c3.534 0 6.4-2.866 6.4-6.4v-5.548c-4.245-4.694-10.373-7.652-17.2-7.652z"></path>
<path fill="#fc9c95" style="fill: var(--color6, #fc9c95)" d="M13.6 14.4c-4.689 0-8.99 1.626-12.4 4.329v5.671c0 3.534 2.866 6.4 6.4 6.4h16.8c3.534 0 6.4-2.866 6.4-6.4v-0.19c-3.486-5.87-9.878-9.81-17.2-9.81z"></path>
<path fill="#ffac99" style="fill: var(--color7, #ffac99)" d="M13.6 17.6c-4.916 0-9.328 2.121-12.4 5.487v1.313c0 3.534 2.866 6.4 6.4 6.4h16.8c1.972 0 3.734-0.894 4.909-2.296-2.39-6.365-8.51-10.904-15.709-10.904z"></path>
<path fill="#ffc49c" style="fill: var(--color8, #ffc49c)" d="M24.4 30.8c0.766 0 1.496-0.142 2.177-0.388-1.707-5.56-6.858-9.612-12.977-9.612-4.949 0-9.274 2.647-11.653 6.598 1.075 2.023 3.202 3.402 5.653 3.402h16.8z"></path>
<path fill="#ffde8d" style="fill: var(--color9, #ffde8d)" d="M13.6 24c-4.11 0-7.658 2.387-9.347 5.847 0.975 0.601 2.118 0.953 3.347 0.953h15.746c-1.466-3.966-5.27-6.8-9.746-6.8z"></path>
<path fill="#fff69f" style="fill: var(--color10, #fff69f)" d="M13.6 27.2c-2.655 0-4.954 1.45-6.202 3.59 0.068 0.002 0.134 0.010 0.202 0.010h12.208c-1.246-2.146-3.549-3.6-6.208-3.6z"></path>
<path fill="#8b75a1" style="fill: var(--color11, #8b75a1)" d="M24.8 1.6c3.088 0 5.6 2.512 5.6 5.6v17.6c0 3.088-2.512 5.6-5.6 5.6h-17.6c-3.088 0-5.6-2.512-5.6-5.6v-17.6c0-3.088 2.512-5.6 5.6-5.6h17.6zM24.8 0.8h-17.6c-3.534 0-6.4 2.866-6.4 6.4v17.6c0 3.534 2.866 6.4 6.4 6.4h17.6c3.534 0 6.4-2.866 6.4-6.4v-17.6c0-3.534-2.866-6.4-6.4-6.4v0z"></path>
<path fill="#fff" style="fill: var(--color12, #fff)" d="M23.2 10c0 0.663-0.537 1.2-1.2 1.2s-1.2-0.537-1.2-1.2c0-0.663 0.537-1.2 1.2-1.2s1.2 0.537 1.2 1.2z"></path>
<path fill="none" stroke="#fff" style="stroke: var(--color12, #fff)" stroke-linejoin="miter" stroke-linecap="butt" stroke-miterlimit="10" stroke-width="0.8" d="M20.8 16c0 2.651-2.149 4.8-4.8 4.8s-4.8-2.149-4.8-4.8c0-2.651 2.149-4.8 4.8-4.8s4.8 2.149 4.8 4.8z"></path>
<path fill="none" stroke="#fff" style="stroke: var(--color12, #fff)" stroke-linejoin="miter" stroke-linecap="butt" stroke-miterlimit="10" stroke-width="0.8" d="M26.4 11.6c0-3.314-2.686-6-6-6-1.741 0-7.059 0-8.8 0-3.314 0-6 2.686-6 6 0 1.741 0 7.059 0 8.8 0 3.314 2.686 6 6 6 1.741 0 7.059 0 8.8 0 3.314 0 6-2.686 6-6 0-1.741 0-7.059 0-8.8z"></path>
</symbol>

<symbol id="icon-icons8-instagram-2" viewBox="0 0 32 32">
<path fill="#304ffe" style="fill: var(--color1, #304ffe)" d="M27.78 8.987c-0.267 0.173-0.647 0.333-0.807 0.513-0.060 0.060-0.093 0.127-0.080 0.193v0.687l-0.2 0.673-0.42 1.4-0.453 1.5-0.44 1.48-0.333 1.113c0 0.173-0.007 0.347-0.020 0.513-0.047 0.64-0.18 1.253-0.393 1.827-0.127 0.353-0.28 0.693-0.467 1.013-0.067 0.127-0.147 0.253-0.227 0.373-0.267 0.42-0.587 0.807-0.94 1.147-0.273 0.273-0.573 0.527-0.9 0.74 0 0 0 0-0.007 0-0.053 0.047-0.113 0.087-0.18 0.12-0.207 0.14-0.427 0.26-0.653 0.367-0.153 0.080-0.307 0.147-0.467 0.207-0.033 0.020-0.073 0.033-0.107 0.047-0.38 0.18-0.82 0.3-1.26 0.36-0.027 0.007-0.047 0.007-0.073 0.013-0.267 0.047-0.527 0.087-0.793 0.107-0.12 0.013-0.247 0.020-0.367 0.020l-0.473-0.027-2.28-0.12c0-0.007-0.007 0-0.007 0l-1.147-0.060c-0.087 0-0.18 0-0.267-0.007-0.36-0.013-0.707-0.053-1.053-0.127-0.007 0-0.007 0-0.007 0-0.633-0.12-1.24-0.333-1.807-0.62-0.313-0.16-0.62-0.34-0.907-0.547-0.12-0.087-0.233-0.18-0.347-0.28-0.32-0.267-0.607-0.553-0.873-0.847-0.040-0.040-0.073-0.080-0.107-0.12-0.040-0.040-0.080-0.087-0.113-0.127-0.253-0.32-0.467-0.647-0.64-0.993-0.16-0.307-0.287-0.633-0.387-0.993-0.040-0.127-0.073-0.247-0.1-0.38-0.007-0.007-0.013-0.020-0.013-0.033-0.067-0.273-0.127-0.56-0.16-0.847-0.040-0.22-0.060-0.44-0.060-0.667-0.013-0.087-0.013-0.18-0.013-0.267l1.273-1.967 1.813-2.793 0.513-0.787 0.173-0.273v-0.687c0.013-0.153 0.020-0.313 0.013-0.46-0.007-0.467-0.1-0.92-0.253-1.353-0.147-0.46-0.353-0.893-0.567-1.293-0.253-0.46-0.52-0.873-0.74-1.247-0.327-0.547-0.553-0.993-0.493-1.307 0.48-0.113 0.987-0.173 1.5-0.173h10.667c2.787 0 5.187 1.733 6.18 4.173 0.107 0.26 0.2 0.533 0.267 0.813z"></path>
<path fill="#4928f4" style="fill: var(--color2, #4928f4)" d="M28 10.667v0.18l-6.52 3.78c0 0.32-0.080 0.613-0.227 0.88-0.207 0.387-0.553 0.707-0.993 0.98-0.447 0.273-0.993 0.493-1.607 0.653 0 0 0-0.007-0.007 0-2.373 0.613-5.613 0.333-7.187-0.84-0.44-0.327-0.747-0.727-0.88-1.187-0.040-0.153-0.060-0.32-0.060-0.487v-4.793c0.007-0.1-0.060-0.2-0.18-0.3-0.36-0.287-1.207-0.56-2.153-0.833-0.74-0.207-1.533-0.413-2.2-0.613-0.527-0.16-0.973-0.32-1.24-0.473 0.12-0.233 0.26-0.467 0.407-0.687 0.933-1.367 2.36-2.373 4.013-2.753 0.48-0.113 0.987-0.173 1.5-0.173h7.2c3.58 0.627 6.88 2.087 9.647 4.173 0.107 0.26 0.2 0.533 0.267 0.813 0.12 0.44 0.193 0.893 0.213 1.367 0.007 0.1 0.007 0.207 0.007 0.313z"></path>
<path fill="#6200ea" style="fill: var(--color3, #6200ea)" d="M28 10.667v2.94l-0.147 0.453-0.5 1.553-0.52 1.6-0.273 0.853-0.253 0.793-0.247 0.753-0.24 0.747-0.127 0.393-0.167 0.52c0 0.507-0.013 0.953-0.047 1.333-0.007 0.040-0.013 0.080-0.013 0.12-0.040 0.353-0.093 0.653-0.18 0.907-0.007 0.040-0.020 0.080-0.033 0.113-0.173 0.48-0.433 0.787-0.82 0.987-0.093 0.053-0.2 0.093-0.313 0.133-0.353 0.12-0.8 0.18-1.347 0.213-0.4 0.027-0.86 0.033-1.38 0.033h-0.46l-10.107-0.413c-0.52-0.007-0.967-0.040-1.353-0.093-0.56-0.087-0.993-0.233-1.32-0.453-0.467-0.3-0.74-0.74-0.9-1.353-0.040-0.147-0.073-0.3-0.093-0.467-0.067-0.387-0.1-0.833-0.12-1.333 0-0.1 0-0.2-0.007-0.307-0.007-0.007 0-0.007 0-0.007v-0.387c-0.007-0.193-0.007-0.393-0.007-0.6l0.033-1.073 0.020-0.767 0.027-0.893v-0.127l0.093-3.28 0.047-1.54 0.040-1.513 0.013-0.4c0-0.207-0.7-0.327-1.48-0.427-0.62-0.080-1.3-0.153-1.707-0.247 0.033-0.153 0.067-0.307 0.107-0.453 0.12-0.48 0.3-0.933 0.527-1.367 0.12-0.233 0.26-0.467 0.407-0.687 1.44-0.633 2.94-1.127 4.507-1.447 1.373-0.287 2.807-0.44 4.287-0.44 4.907 0 9.44 1.66 13.027 4.46 0.347 0.267 0.687 0.553 1.020 0.853 0.007 0.1 0.007 0.207 0.007 0.313z"></path>
<path fill="#673ab7" style="fill: var(--color4, #673ab7)" d="M28 12.247v3.027l-0.367 0.707-0.7 1.367-0.373 0.72-0.34 0.66-0.147 0.287c0 0.207 0 0.407-0.013 0.6 0 0.287-0.013 0.56-0.033 0.813-0.027 0.3-0.067 0.573-0.107 0.827-0.1 0.527-0.24 0.98-0.44 1.353-0.027 0.047-0.053 0.093-0.080 0.133-0.073 0.12-0.16 0.233-0.253 0.34-0.12 0.147-0.253 0.273-0.407 0.38-0.227 0.173-0.493 0.313-0.8 0.42-0.38 0.14-0.82 0.233-1.34 0.287-0.34 0.033-0.713 0.053-1.12 0.053l-0.28 0.013-9.313 0.54c-0.34 0-0.66-0.020-0.967-0.060-0.033-0.007-0.060-0.013-0.093-0.013-0.453-0.073-0.867-0.193-1.24-0.36-0.453-0.2-0.847-0.467-1.18-0.787-0.293-0.287-0.547-0.613-0.753-0.98-0.047-0.087-0.093-0.167-0.133-0.26-0.2-0.393-0.36-0.833-0.48-1.313-0.020-0.080-0.040-0.167-0.053-0.253-0.040-0.153-0.073-0.313-0.093-0.48-0.073-0.427-0.113-0.88-0.133-1.353v-0.007c-0.007-0.193-0.013-0.38-0.013-0.58l-0.327-0.78-0.047-0.12-0.040-0.1-0.5-1.193-0.080-0.193-0.48-1.153-0.533-1.287c0 0 0 0-0.007 0l-0.54-1.3-0.193-0.473v-1.060c0-0.42 0.040-0.833 0.113-1.233 0.033-0.153 0.067-0.307 0.107-0.453 0.567-0.327 1.16-0.627 1.767-0.893 1.387-0.62 2.873-1.080 4.413-1.36 1.147-0.207 2.34-0.32 3.547-0.32 4.873 0 9.293 1.767 12.747 4.647 0.133 0.107 0.26 0.213 0.387 0.327 0.313 0.273 0.62 0.56 0.92 0.867z"></path>
<path fill="#8e24aa" style="fill: var(--color5, #8e24aa)" d="M28 14.233v3.427l-0.38 0.793-0.72 1.5-0.007 0.020c0 0.287-0.013 0.547-0.033 0.78-0.067 0.767-0.253 1.253-0.56 1.553-0.22 0.227-0.493 0.353-0.833 0.42-0.020 0.007-0.047 0.007-0.067 0.013-0.107 0.020-0.22 0.033-0.34 0.033-0.413 0.040-0.9 0.013-1.46-0.027-0.060 0-0.127-0.007-0.193-0.013-0.407-0.027-0.84-0.053-1.32-0.073-0.26-0.007-0.533-0.013-0.813-0.013h-0.013l-0.68 0.053-1.513 0.107-1.98 0.153-2.020 0.147-1.047 0.080-1.033 0.073c-0.18 0-0.353 0-0.527-0.007 0 0-0.007-0.007-0.007 0-0.753-0.013-1.427-0.060-2.027-0.173-0.553-0.093-1.040-0.24-1.453-0.46-0.427-0.207-0.78-0.5-1.067-0.873-0.273-0.367-0.473-0.827-0.6-1.38 0-0.007 0-0.007 0-0.007-0.093-0.447-0.147-0.967-0.147-1.553l-0.1-0.18-0.593-1.060-0.087-0.147-0.047-0.093-0.62-1.1-0.307-0.553-0.387-0.687-0.667-1.193-0.353-0.627v-2.453c0.587-0.387 1.193-0.727 1.82-1.033 0.76-0.387 1.547-0.713 2.367-0.98 0.893-0.293 1.827-0.527 2.78-0.68 0.967-0.16 1.96-0.24 2.98-0.24 4.533 0 8.693 1.62 11.9 4.313 0.147 0.113 0.287 0.24 0.427 0.36 0.56 0.5 1.093 1.040 1.58 1.607 0.053 0.060 0.107 0.113 0.147 0.173z"></path>
<path fill="#c2185b" style="fill: var(--color6, #c2185b)" d="M28 16.473v4.82c-0.16-0.093-0.38-0.207-0.653-0.327-0.147-0.073-0.313-0.147-0.487-0.213-0.253-0.113-0.527-0.22-0.833-0.327-0.067-0.027-0.133-0.047-0.207-0.067-0.12-0.047-0.247-0.087-0.373-0.127-0.393-0.12-0.827-0.233-1.28-0.333-0.173-0.033-0.353-0.067-0.533-0.093-0.58-0.1-1.2-0.16-1.847-0.167-0.053-0.007-0.113-0.007-0.167-0.007l-1.713 0.013-2.34 0.013-4.993 0.040c-1.587 0-2.56 0.38-3.147 0.533 0 0-0.007 0-0.007 0.007-0.62 0.16-0.813 0.060-0.867-1.027-0.013-0.3-0.020-0.687-0.020-1.16l-0.373-0.287-0.653-0.493-0.4-0.307-0.080-0.060-1.273-0.967-0.347-0.267-0.64-0.48-0.767-0.587v-2.267c0.067-0.053 0.127-0.1 0.193-0.14 0.967-0.667 2-1.233 3.093-1.693 0.973-0.413 2-0.74 3.053-0.973 0.287-0.060 0.58-0.12 0.88-0.16 0.887-0.153 1.8-0.227 2.727-0.227 4.007 0 7.687 1.393 10.607 3.7 0.44 0.347 0.867 0.713 1.267 1.107 0.547 0.52 1.060 1.073 1.533 1.66 0.093 0.12 0.187 0.24 0.28 0.367 0.127 0.16 0.247 0.327 0.367 0.493z"></path>
<path fill="#d81b60" style="fill: var(--color7, #d81b60)" d="M28 19.147v2.187c0 0.433-0.040 0.86-0.12 1.273-0.12 0.613-0.327 1.2-0.607 1.747-0.147 0.033-0.313 0.033-0.5 0.007-0.42-0.073-0.913-0.293-1.447-0.58-0.027-0.007-0.053-0.020-0.073-0.033-0.167-0.087-0.34-0.18-0.513-0.287-0.353-0.193-0.727-0.407-1.1-0.607-0.080-0.040-0.16-0.080-0.233-0.12-0.427-0.22-0.867-0.42-1.307-0.573 0 0 0 0-0.007 0-0.093-0.033-0.193-0.067-0.293-0.093-0.38-0.107-0.767-0.173-1.14-0.173l-0.733-0.213-3.247-0.94c0 0 0 0-0.007 0l-2.867-0.833c-2.507 0-4.047 1.067-4.793 0.66-0.293-0.153-0.467-0.54-0.527-1.3-0.020-0.213-0.027-0.453-0.027-0.733l-0.78-0.38-0.033-0.013h-0.007l-0.56-0.28-0.613-0.293-0.047-0.020-0.113-0.060-2.307-1.12v-2.287c0.113-0.1 0.233-0.193 0.353-0.287 0.127-0.1 0.253-0.193 0.38-0.293 0.007 0 0.007 0 0.007 0 0.787-0.567 1.62-1.067 2.507-1.48 1.033-0.493 2.133-0.873 3.273-1.12 0.167-0.040 0.34-0.080 0.513-0.107 0.947-0.18 1.92-0.273 2.913-0.273 3.513 0 6.74 1.14 9.34 3.060 0.753 0.56 1.453 1.18 2.093 1.853 0.527 0.553 1.013 1.153 1.453 1.78 0.033 0.047 0.067 0.093 0.1 0.133 0.247 0.36 0.473 0.727 0.687 1.107 0.14 0.227 0.26 0.46 0.38 0.693z"></path>
<path fill="#f50057" style="fill: var(--color8, #f50057)" d="M27.88 22.607c-0.12 0.613-0.327 1.2-0.607 1.747-0.127 0.247-0.267 0.48-0.42 0.707-0.093 0.14-0.193 0.273-0.293 0.4-0.24-0.093-0.593-0.227-1.027-0.373 0 0 0 0 0-0.007-0.327-0.113-0.7-0.233-1.1-0.347-0.113-0.033-0.227-0.067-0.347-0.1-0.473-0.127-0.967-0.24-1.447-0.307-0.4-0.067-0.793-0.107-1.16-0.107l-0.307-0.087h-0.007l-9.687-2.787-2.64-0.627c0 0 0 0-0.007 0l-1.527-0.353c0-0.007 0-0.007 0-0.007l-0.273-0.060-0.14-0.033-1.113-0.26-0.127-0.033-0.947-0.78-0.707-0.593v-2.72c0.247-0.24 0.5-0.467 0.767-0.687 0.080-0.073 0.167-0.14 0.253-0.207 0.080-0.067 0.167-0.133 0.253-0.2 0.607-0.46 1.247-0.873 1.927-1.227 0.867-0.467 1.787-0.84 2.753-1.107 0.187-0.060 0.373-0.113 0.567-0.153 1.093-0.273 2.24-0.413 3.427-0.413 2.98 0 5.753 0.9 8.047 2.44 1.14 0.767 2.167 1.687 3.033 2.733 0.44 0.527 0.84 1.080 1.193 1.667 0.033 0.047 0.060 0.087 0.087 0.133 0.213 0.353 0.413 0.72 0.593 1.093 0.167 0.333 0.313 0.667 0.447 1.013 0.213 0.533 0.387 1.080 0.533 1.64z"></path>
<path fill="#ff1744" style="fill: var(--color9, #ff1744)" d="M26.853 25.060c-0.093 0.14-0.193 0.273-0.293 0.4-0.293 0.367-0.613 0.7-0.973 0.993-0.313 0.26-0.647 0.493-1 0.693-0.133-0.033-0.267-0.073-0.407-0.127-0.44-0.153-0.9-0.407-1.327-0.673-0.64-0.407-1.193-0.847-1.44-1.047-0.093-0.080-0.14-0.12-0.14-0.12l-10.080-0.893-6.633-3.213-0.56-0.173v-2.98c0.313-0.373 0.647-0.727 1-1.067 0.227-0.213 0.467-0.427 0.713-0.627 0.040-0.033 0.080-0.067 0.12-0.093 0.027-0.033 0.060-0.053 0.087-0.067 0.393-0.32 0.807-0.607 1.233-0.867 0.493-0.313 1.013-0.593 1.553-0.827 0.58-0.26 1.187-0.48 1.813-0.647 1.087-0.307 2.24-0.467 3.427-0.467 2.72 0 5.233 0.827 7.307 2.247 1.327 0.907 2.473 2.053 3.38 3.38 0.3 0.427 0.567 0.88 0.813 1.347 0.087 0.173 0.173 0.347 0.247 0.52 0.080 0.167 0.153 0.333 0.227 0.5 0.14 0.347 0.267 0.693 0.38 1.053 0.213 0.667 0.373 1.347 0.473 2.053 0.033 0.233 0.060 0.467 0.080 0.7z"></path>
<path fill="#ff5722" style="fill: var(--color10, #ff5722)" d="M25.593 26.28c0 0.053 0 0.113-0.007 0.173-0.313 0.26-0.647 0.493-1 0.693-0.147 0.080-0.293 0.16-0.447 0.227-0.153 0.073-0.307 0.14-0.467 0.2-0.227-0.12-0.533-0.267-0.86-0.407-0.46-0.207-0.96-0.393-1.347-0.453-0.093-0.020-0.18-0.027-0.26-0.027l-1.093-0.14h-0.013l-2.733-0.36-0.64-0.080-5.040-0.653c-0.327 0-0.673-0.020-1.033-0.067-0.44-0.040-0.9-0.107-1.36-0.2-0.453-0.080-0.913-0.187-1.353-0.3-0.46-0.107-0.913-0.233-1.333-0.353-0.487-0.147-0.94-0.287-1.32-0.413-0.313-0.1-0.58-0.193-0.787-0.267-0.12-0.287-0.22-0.587-0.293-0.893-0.14-0.52-0.207-1.067-0.207-1.627v-1.113c0.213-0.353 0.447-0.7 0.707-1.027 0.473-0.627 1.013-1.2 1.6-1.707 0.020-0.027 0.047-0.047 0.067-0.060l0.007-0.007c0.207-0.187 0.42-0.353 0.647-0.513 0.027-0.027 0.053-0.047 0.080-0.067 0.107-0.080 0.22-0.16 0.34-0.233 0.953-0.647 2.007-1.153 3.133-1.493 1.067-0.32 2.193-0.487 3.367-0.487 2.327 0 4.5 0.687 6.313 1.86 1.34 0.86 2.493 1.993 3.373 3.32 0.107 0.153 0.207 0.307 0.307 0.467 0.46 0.78 0.84 1.62 1.12 2.5 0.033 0.1 0.060 0.2 0.087 0.307 0.053 0.18 0.1 0.367 0.14 0.553 0.013 0.047 0.027 0.093 0.040 0.147 0.093 0.42 0.16 0.86 0.207 1.3 0 0.007 0 0.007 0 0.007 0.040 0.393 0.060 0.793 0.060 1.193z"></path>
<path fill="#ff6f00" style="fill: var(--color11, #ff6f00)" d="M24.22 26.28c0 0.233-0.013 0.487-0.040 0.74-0.013 0.12-0.027 0.24-0.040 0.353-0.153 0.073-0.307 0.14-0.467 0.2-0.3 0.113-0.607 0.207-0.92 0.273-0.213 0.047-0.433 0.087-0.653 0.107h-0.007c-0.207-0.127-0.447-0.28-0.693-0.453-0.447-0.313-0.913-0.667-1.287-0.953-0.007-0.007-0.007-0.007-0.013-0.013-0.393-0.3-0.673-0.527-0.673-0.527l-0.707 0.027-1.36 0.047-0.633 0.027-4.7 0.173c-0.14 0.007-0.307 0.007-0.513 0h-0.007c-0.28-0.007-0.613-0.027-0.98-0.060-0.427-0.033-0.893-0.073-1.367-0.12-0.46-0.053-0.927-0.107-1.373-0.16-0.493-0.053-0.96-0.113-1.36-0.167-0.313-0.040-0.587-0.073-0.807-0.1-0.187-0.213-0.353-0.433-0.513-0.673-0.24-0.36-0.447-0.74-0.607-1.147-0.12-0.287-0.22-0.587-0.293-0.893 0.193-0.593 0.447-1.153 0.747-1.693 0.24-0.44 0.52-0.86 0.827-1.26 0.3-0.393 0.627-0.76 0.98-1.093v-0.007c0.1-0.1 0.2-0.193 0.3-0.28 0.187-0.173 0.38-0.333 0.58-0.487h0.007c0.007-0.013 0.013-0.013 0.020-0.020 0.16-0.127 0.327-0.24 0.493-0.353 0.987-0.673 2.1-1.173 3.3-1.467 0.793-0.193 1.627-0.3 2.487-0.3 1.693 0 3.293 0.407 4.7 1.14h0.007c1.207 0.62 2.273 1.473 3.133 2.5 0.473 0.547 0.88 1.147 1.213 1.78 0.233 0.427 0.433 0.873 0.6 1.327 0.013 0.040 0.027 0.073 0.040 0.107 0.113 0.333 0.213 0.68 0.3 1.027 0.060 0.247 0.107 0.5 0.147 0.753 0.013 0.080 0.027 0.153 0.033 0.233 0.067 0.46 0.1 0.933 0.1 1.413z"></path>
<path fill="#ff9800" style="fill: var(--color12, #ff9800)" d="M22.853 26.28v0.067c0 0.227-0.020 0.513-0.040 0.82-0.020 0.227-0.040 0.46-0.060 0.68-0.213 0.047-0.433 0.087-0.653 0.107h-0.007c-0.253 0.033-0.5 0.047-0.76 0.047h-1.167l-0.253-0.073-1.313-0.4-5.753-1.727c0 0-0.553 0.22-1.333 0.48h-0.007c-0.3 0.1-0.627 0.207-0.973 0.313-0.433 0.127-0.893 0.253-1.347 0.353-0.467 0.107-0.927 0.187-1.34 0.22-0.127 0.013-0.253 0.020-0.367 0.020-0.373-0.207-0.733-0.453-1.060-0.727-0.287-0.24-0.553-0.5-0.8-0.787-0.187-0.213-0.353-0.433-0.513-0.673 0.047-0.3 0.1-0.593 0.18-0.88 0.2-0.793 0.513-1.553 0.927-2.247 0.227-0.393 0.48-0.773 0.773-1.127 0.007-0.020 0.027-0.040 0.047-0.053-0.007-0.007 0-0.007 0-0.007 0.087-0.113 0.18-0.22 0.273-0.32 0-0.007 0-0.007 0-0.007 0.273-0.293 0.553-0.573 0.86-0.833 0.107-0.087 0.207-0.173 0.32-0.26 0.020-0.020 0.040-0.033 0.067-0.053 1.5-1.147 3.373-1.84 5.393-1.84 2.293 0 4.38 0.86 5.96 2.273 0.76 0.687 1.407 1.507 1.893 2.42 0.040 0.067 0.080 0.14 0.113 0.213 0.060 0.12 0.12 0.247 0.173 0.38 0.22 0.48 0.393 0.987 0.513 1.507 0.013 0.053 0.027 0.107 0.040 0.16 0.053 0.247 0.1 0.5 0.133 0.753 0.053 0.393 0.080 0.793 0.080 1.2z"></path>
<path fill="#ffc107" style="fill: var(--color13, #ffc107)" d="M21.48 26.28c0 0.133-0.007 0.28-0.013 0.433-0.013 0.247-0.033 0.513-0.067 0.787-0.013 0.167-0.040 0.333-0.067 0.5h-3.653l-4.76-0.76c-0.393 0-1.247 0.173-2.147 0.34-0.473 0.087-0.953 0.18-1.387 0.24-0.053 0.007-0.107 0.013-0.153 0.020h-0.007c-0.467-0.1-0.92-0.253-1.347-0.453-0.133-0.060-0.267-0.127-0.4-0.2-0.373-0.207-0.733-0.453-1.060-0.727-0.007-0.080-0.013-0.147-0.013-0.18 0-0.173 0.007-0.34 0.020-0.507 0.027-0.427 0.087-0.84 0.18-1.24 0.147-0.607 0.36-1.193 0.647-1.733 0.053-0.113 0.113-0.227 0.18-0.333 0.027-0.053 0.060-0.1 0.087-0.153 0.12-0.193 0.253-0.38 0.387-0.567 0.28-0.367 0.593-0.713 0.927-1.027 0.007 0 0.007 0 0.007 0 0.027-0.027 0.053-0.053 0.080-0.073 0.033-0.027 0.060-0.060 0.093-0.080 0.133-0.12 0.267-0.227 0.407-0.327 0-0.007 0.007-0.007 0.007-0.007 1.26-0.94 2.82-1.493 4.52-1.493 1.32 0 2.547 0.333 3.62 0.92h0.007c0.92 0.507 1.72 1.193 2.353 2.020 0.247 0.32 0.467 0.66 0.653 1.020h0.007c0.033 0.067 0.067 0.133 0.1 0.2 0.2 0.393 0.36 0.807 0.48 1.233h0.007c0.007 0.033 0.020 0.067 0.027 0.1 0.080 0.287 0.147 0.58 0.193 0.88 0.007 0.060 0.013 0.127 0.020 0.187 0.047 0.32 0.067 0.647 0.067 0.98z"></path>
<path fill="#ffd54f" style="fill: var(--color14, #ffd54f)" d="M20.113 26.207c0 0.107 0 0.22-0.013 0.327v0.007c0 0.007 0 0.007 0 0.007-0.013 0.48-0.080 0.953-0.187 1.38 0 0.027-0.007 0.047-0.020 0.073h-3.113l-2.907-0.627-0.053 0.013-2.973 0.613h-0.18c-0.427 0-0.847-0.040-1.253-0.12-0.060-0.013-0.12-0.027-0.18-0.040h-0.007c-0.467-0.1-0.92-0.253-1.347-0.453-0.013-0.073-0.027-0.147-0.033-0.22-0.047-0.287-0.067-0.587-0.067-0.887 0-0.113 0-0.227 0.007-0.34 0.020-0.36 0.073-0.713 0.153-1.053 0.053-0.253 0.127-0.5 0.213-0.733 0.073-0.207 0.16-0.407 0.253-0.6 0.080-0.167 0.173-0.327 0.267-0.487 0.093-0.153 0.193-0.3 0.3-0.447 0.267-0.367 0.58-0.707 0.927-1.007 0.2-0.173 0.42-0.34 0.647-0.487 0.973-0.64 2.14-1.013 3.4-1.013 0.247 0 0.487 0.013 0.72 0.047h0.013c0.713 0.080 1.38 0.28 1.993 0.58 0.007 0 0.007 0 0.007 0 0.967 0.473 1.787 1.187 2.387 2.067 0.1 0.147 0.2 0.307 0.287 0.467 0.073 0.127 0.14 0.26 0.2 0.393 0.093 0.207 0.18 0.427 0.253 0.647h0.007c0.073 0.247 0.14 0.493 0.187 0.753v0.007c0.073 0.367 0.113 0.747 0.113 1.133z"></path>
<path fill="#ffe082" style="fill: var(--color15, #ffe082)" d="M18.74 26.347v0.020c0 0.393-0.047 0.78-0.14 1.16-0.033 0.16-0.080 0.32-0.14 0.473h-2.987l-1.527-0.42-1.527 0.42h-1.753c-0.427 0-0.847-0.040-1.253-0.12-0.013-0.020-0.020-0.040-0.027-0.060-0.093-0.287-0.167-0.573-0.2-0.873-0.027-0.193-0.040-0.393-0.040-0.6 0-0.080 0-0.167 0.013-0.247 0.007-0.313 0.053-0.62 0.133-0.913 0.040-0.2 0.1-0.393 0.18-0.58 0.027-0.093 0.067-0.18 0.113-0.267 0.1-0.227 0.22-0.447 0.353-0.66 0.147-0.213 0.307-0.413 0.487-0.6 0.213-0.24 0.453-0.46 0.727-0.64 0.467-0.34 1-0.593 1.58-0.733 0.387-0.107 0.793-0.16 1.213-0.16 1.333 0 2.527 0.533 3.393 1.393 0.033 0.033 0.073 0.073 0.107 0.12h0.007c0.093 0.1 0.18 0.2 0.267 0.313 0.247 0.313 0.453 0.653 0.613 1.027 0.080 0.173 0.147 0.353 0.2 0.54 0.007 0.027 0.013 0.047 0.020 0.073 0.093 0.327 0.153 0.667 0.167 1.020 0.013 0.1 0.020 0.207 0.020 0.313z"></path>
<path fill="#ffecb3" style="fill: var(--color16, #ffecb3)" d="M17.373 26.347c0 0.273-0.033 0.533-0.107 0.78-0.067 0.267-0.167 0.52-0.293 0.76-0.020 0.040-0.067 0.113-0.067 0.113h-5.92c-0.007-0.007-0.013-0.020-0.013-0.027-0.080-0.127-0.147-0.253-0.2-0.393-0.133-0.307-0.213-0.64-0.24-0.987-0.013-0.080-0.013-0.167-0.013-0.247 0-0.040 0-0.087 0.007-0.127 0.007-0.293 0.047-0.573 0.127-0.833 0.067-0.24 0.153-0.46 0.267-0.673 0 0 0.007-0.007 0.007-0.013 0.080-0.14 0.167-0.28 0.267-0.413 0.327-0.44 0.76-0.8 1.26-1.033 0.007 0 0.007 0 0.007 0 0.16-0.080 0.327-0.147 0.5-0.193 0 0 0 0 0.007 0 0.307-0.093 0.64-0.14 0.98-0.14 0.393 0 0.773 0.060 1.12 0.187 0.127 0.033 0.247 0.087 0.367 0.147 0 0 0 0 0.007 0 0.573 0.273 1.060 0.7 1.393 1.233 0.067 0.1 0.127 0.207 0.18 0.32 0.027 0.047 0.053 0.1 0.073 0.147 0.153 0.347 0.247 0.727 0.273 1.127 0.007 0.033 0.007 0.067 0.007 0.107 0.007 0.053 0.007 0.107 0.007 0.16z"></path>
<path fill="none" stroke="#fff" style="stroke: var(--color17, #fff)" stroke-linejoin="round" stroke-linecap="round" stroke-miterlimit="10" stroke-width="1.3333" d="M20 7.333h-8c-2.6 0-4.667 2.067-4.667 4.667v8c0 2.6 2.067 4.667 4.667 4.667h8c2.6 0 4.667-2.067 4.667-4.667v-8c0-2.6-2.067-4.667-4.667-4.667z"></path>
<path fill="#fff" style="fill: var(--color17, #fff)" d="M21.333 10.667c0 0.368-0.298 0.667-0.667 0.667s-0.667-0.298-0.667-0.667c0-0.368 0.298-0.667 0.667-0.667s0.667 0.298 0.667 0.667z"></path>
<path fill="none" stroke="#fff" style="stroke: var(--color17, #fff)" stroke-linejoin="round" stroke-linecap="round" stroke-miterlimit="10" stroke-width="1.3333" d="M20 16c0 2.209-1.791 4-4 4s-4-1.791-4-4c0-2.209 1.791-4 4-4s4 1.791 4 4z"></path>
</symbol>

<symbol id="icon-icons8telegram" viewBox="0 0 32 32">
<path fill="#29b6f6" style="fill: var(--color1, #29b6f6)" d="M29.333 16c0 7.364-5.97 13.333-13.333 13.333s-13.333-5.97-13.333-13.333c0-7.364 5.97-13.333 13.333-13.333s13.333 5.97 13.333 13.333z"></path>
<path fill="#fff" style="fill: var(--color2, #fff)" d="M22.633 10l-2.497 12.751c0 0-0.107 0.583-0.83 0.583-0.384 0-0.582-0.183-0.582-0.183l-5.409-4.489-2.647-1.334-3.397-0.903c0 0-0.605-0.175-0.605-0.675 0-0.417 0.622-0.615 0.622-0.615l14.211-5.645c-0.001-0.001 0.434-0.157 0.751-0.156 0.195 0 0.417 0.083 0.417 0.333 0 0.167-0.033 0.333-0.033 0.333z"></path>
<path fill="#b0bec5" style="fill: var(--color3, #b0bec5)" d="M15.333 20.337l-2.284 2.249c0 0-0.099 0.077-0.232 0.080-0.046 0.001-0.095-0.006-0.146-0.029l0.643-3.977 2.019 1.676z"></path>
<path fill="#cfd8dc" style="fill: var(--color4, #cfd8dc)" d="M19.931 12.131c-0.113-0.147-0.321-0.173-0.467-0.062l-8.797 5.265c0 0 1.404 3.928 1.618 4.608s0.387 0.697 0.387 0.697l0.643-3.977 6.555-6.064c0.147-0.111 0.174-0.32 0.063-0.467z"></path>
</symbol>

</defs>
</svg>
